<?xml version="1.0" encoding="UTF-8" standalone="no"?>
<!-- Created with Inkscape (http://www.inkscape.org/) -->

<svg
   xmlns:dc="http://purl.org/dc/elements/1.1/"
   xmlns:cc="http://creativecommons.org/ns#"
   xmlns:rdf="http://www.w3.org/1999/02/22-rdf-syntax-ns#"
   xmlns:svg="http://www.w3.org/2000/svg"
   xmlns="http://www.w3.org/2000/svg"
   xmlns:xlink="http://www.w3.org/1999/xlink"
   xmlns:sodipodi="http://sodipodi.sourceforge.net/DTD/sodipodi-0.dtd"
   xmlns:inkscape="http://www.inkscape.org/namespaces/inkscape"
   width="142"
   height="48"
   id="svg2"
   version="1.1"
   inkscape:version="0.48.1 r9760"
   sodipodi:docname="ocsigen-powered-2.svg"
   inkscape:export-filename="/home/jerome/ocsigen-powered-2.png"
   inkscape:export-xdpi="90"
   inkscape:export-ydpi="90">
  <defs
     id="defs4">
    <linearGradient
       id="linearGradient3977">
      <stop
         style="stop-color:#d1d1d1;stop-opacity:1;"
         offset="0"
         id="stop3979" />
      <stop
         style="stop-color:#ededed;stop-opacity:1;"
         offset="1"
         id="stop3981" />
    </linearGradient>
    <linearGradient
       id="linearGradient3861">
      <stop
         style="stop-color:#0066b3;stop-opacity:1;"
         offset="0"
         id="stop3863" />
      <stop
         style="stop-color:#11bbee;stop-opacity:1;"
         offset="1"
         id="stop3865" />
    </linearGradient>
    <clipPath
       clipPathUnits="userSpaceOnUse"
       id="clipPath3822">
      <rect
         y="-416.20926"
         x="-945.71429"
         height="980"
         width="1137.1428"
         id="rect3824"
         style="fill:#000000;fill-opacity:1;stroke:none" />
    </clipPath>
    <clipPath
       clipPathUnits="userSpaceOnUse"
       id="clipPath3826">
      <rect
         style="fill:#000080;fill-opacity:1;stroke:#be7714;stroke-width:5.8499999;stroke-miterlimit:4;stroke-opacity:1;stroke-dasharray:none"
         id="rect3828"
         width="1182.8572"
         height="351.42856"
         x="185.71428"
         y="943.79077" />
    </clipPath>
    <linearGradient
       inkscape:collect="always"
       xlink:href="#linearGradient3861"
       id="linearGradient3875"
       x1="523.62286"
       y1="921.97937"
       x2="1221.631"
       y2="921.97937"
       gradientUnits="userSpaceOnUse"
       gradientTransform="matrix(0.0742115,0,0,0.0742115,298.92277,961.02327)" />
    <linearGradient
       inkscape:collect="always"
       xlink:href="#linearGradient3977"
       id="linearGradient3983"
       x1="310.78671"
       y1="1078.0765"
       x2="381.78671"
       y2="997.07648"
       gradientUnits="userSpaceOnUse" />
    <linearGradient
       inkscape:collect="always"
       xlink:href="#linearGradient3861"
       id="linearGradient4024"
       x1="307.73953"
       y1="1043.5894"
       x2="390.00827"
       y2="1043.5894"
       gradientUnits="userSpaceOnUse" />
    <linearGradient
       inkscape:collect="always"
       xlink:href="#linearGradient3861"
       id="linearGradient4037"
       x1="307.73953"
       y1="1040.7859"
       x2="390.00827"
       y2="1040.7859"
       gradientUnits="userSpaceOnUse" />
    <linearGradient
       inkscape:collect="always"
       xlink:href="#linearGradient3861"
       id="linearGradient4043"
       gradientUnits="userSpaceOnUse"
       x1="307.73953"
       y1="1040.7859"
       x2="390.00827"
       y2="1040.7859" />
    <linearGradient
       inkscape:collect="always"
       xlink:href="#linearGradient3861"
       id="linearGradient4045"
       gradientUnits="userSpaceOnUse"
       x1="307.73953"
       y1="1040.7859"
       x2="390.00827"
       y2="1040.7859" />
    <linearGradient
       inkscape:collect="always"
       xlink:href="#linearGradient3861"
       id="linearGradient4049"
       gradientUnits="userSpaceOnUse"
       x1="307.73953"
       y1="1040.7859"
       x2="390.00827"
       y2="1040.7859" />
    <linearGradient
       inkscape:collect="always"
       xlink:href="#linearGradient3861"
       id="linearGradient4052"
       gradientUnits="userSpaceOnUse"
       x1="307.73953"
       y1="1040.7859"
       x2="390.00827"
       y2="1040.7859" />
  </defs>
  <sodipodi:namedview
     id="base"
     pagecolor="#ffffff"
     bordercolor="#666666"
     borderopacity="1.0"
     inkscape:pageopacity="0.0"
     inkscape:pageshadow="2"
     inkscape:zoom="4.2763761"
     inkscape:cx="103.15115"
     inkscape:cy="15.935421"
     inkscape:document-units="px"
     inkscape:current-layer="layer1"
     showgrid="true"
     inkscape:window-width="1063"
     inkscape:window-height="704"
     inkscape:window-x="86"
     inkscape:window-y="159"
     inkscape:window-maximized="0"
     fit-margin-top="0"
     fit-margin-left="0"
     fit-margin-right="0"
     fit-margin-bottom="0"
     borderlayer="false"
     gridtolerance="1">
    <inkscape:grid
       type="xygrid"
       id="grid4039"
       empspacing="2"
       visible="false"
       enabled="true"
       snapvisiblegridlinesonly="true"
       color="#000007"
       opacity="1"
       empcolor="#00008d"
       empopacity="1" />
    <inkscape:grid
       type="xygrid"
       id="grid4041"
       empspacing="2"
       visible="false"
       enabled="true"
       snapvisiblegridlinesonly="true"
       originx="1px"
       color="#000000"
       opacity="1"
       empcolor="#000000"
       empopacity="1" />
  </sodipodi:namedview>
  <metadata
     id="metadata7">
    <rdf:RDF>
      <cc:Work
         rdf:about="">
        <dc:format>image/svg+xml</dc:format>
        <dc:type
           rdf:resource="http://purl.org/dc/dcmitype/StillImage" />
        <dc:title></dc:title>
      </cc:Work>
    </rdf:RDF>
  </metadata>
  <g
     inkscape:label="Calque 1"
     inkscape:groupmode="layer"
     id="layer1"
     transform="translate(-251.78671,-1014.0765)">
    <rect
       style="fill:url(#linearGradient3983);fill-opacity:1;stroke:none"
       id="rect3857"
       width="115"
       height="32"
       x="278.78671"
       y="1023.0765"
       ry="5.5956302" />
    <image
       sodipodi:absref="/home/jerome/ocsigen.png"
       xlink:href="ocsigen.png"
       transform="matrix(0.05194805,0,0,0.05194805,299.09654,1034.7627)"
       clip-path="url(#clipPath3822)"
       mask="none"
       style="fill:#000080;stroke:none"
       width="2200"
       height="924"
       id="image3012"
       x="-910.71436"
       y="-398.20923" />
    <path
       sodipodi:nodetypes="cccssccscscccsscccccccccccccccccccsccccccccsccccccccsccccsccccccccccscscccssccccccsccsscscsccccccsscccsccccsccccccccccccccccccsscccsccccsccccccccccc"
       style="fill:url(#linearGradient4052);fill-opacity:1"
       d="m 355.71998,1052.9643 0,-0.8805 0.46382,-0.053 c 1.56598,-0.178 2.92193,-0.8987 3.60831,-2.2203 0.31536,-0.6072 0.68556,-1.3417 0.52898,-1.7464 l 0,-0.2692 -0.50093,0.4147 c -0.60552,0.5013 -1.6248,1.018 -2.43042,1.2321 -0.85565,0.2274 -2.42915,0.2273 -3.26531,-10e-5 -2.14699,-0.584 -3.75022,-2.0932 -4.42638,-4.1666 -0.41746,-1.2801 -0.38076,-2.962 0.093,-4.2629 0.73225,-2.0105 2.38408,-3.4609 4.49584,-3.9476 0.69497,-0.1601 2.07388,-0.1774 2.73176,-0.034 2.31173,0.5033 4.17457,2.2416 4.87383,4.5479 0.15648,0.5161 0.16592,0.6959 0.19161,3.6522 0.0231,2.6588 0.009,3.1965 -0.0943,3.7106 -0.40233,1.9929 -1.73526,3.4928 -3.57247,4.3259 -0.55276,0.2506 -1.47877,0.4766 -2.1964,0.536 l -0.50093,0.042 0,-0.8805 z m 0.99227,-5.2021 c 1.61165,-0.3415 3.07785,-1.7488 3.4912,-3.3509 0.14882,-0.5769 0.15132,-1.6438 0.005,-2.2186 -0.59982,-2.3597 -3.04166,-3.9151 -5.36921,-3.4201 -1.66222,0.3534 -3.1064,1.7359 -3.53698,3.3859 -0.15687,0.6011 -0.15838,1.6665 -0.003,2.2449 0.64116,2.3892 3.02061,3.8656 5.41295,3.3588 z m -41.52171,1.8208 c -1.46784,-0.267 -2.95323,-1.1289 -3.81357,-2.2127 -0.76837,-0.968 -1.22926,-2.0863 -1.37044,-3.3254 -0.31267,-2.7437 1.03318,-5.2487 3.48391,-6.4844 1.56514,-0.7891 3.81675,-0.8062 5.47207,-0.041 1.48673,0.687 2.76172,2.0475 3.32517,3.5484 0.94623,2.5206 0.15827,5.4888 -1.90489,7.1755 -0.54294,0.4439 -1.7398,1.0468 -2.43387,1.2261 -0.5505,0.1423 -2.22305,0.2113 -2.75838,0.1139 z m 2.20475,-1.8221 c 0.84526,-0.2149 1.50297,-0.5986 2.15929,-1.2597 0.90903,-0.9156 1.35914,-1.9729 1.3617,-3.1986 0.005,-2.3519 -1.83295,-4.3459 -4.22896,-4.5883 -1.98413,-0.2007 -4.09584,1.2233 -4.71756,3.1812 -0.38165,1.2019 -0.29884,2.2915 0.25972,3.4175 0.78455,1.5815 2.30679,2.5413 4.05264,2.555 0.37365,0 0.86682,-0.044 1.11317,-0.1071 z m 52.26008,1.8128 c -2.24761,-0.2909 -4.35866,-1.9345 -5.13041,-3.9946 -0.33952,-0.9062 -0.40184,-1.2715 -0.39991,-2.344 0.002,-0.8537 0.032,-1.1448 0.17079,-1.6327 0.3455,-1.2143 0.95019,-2.1844 1.92162,-3.0828 2.33431,-2.1587 5.99078,-2.2241 8.35743,-0.1494 1.4358,1.2587 2.19316,2.8943 2.224,4.803 0.007,0.4557 -0.004,1.0977 -0.025,1.1189 -3.81091,0.095 -6.71557,-0.04 -10.81525,0 l 0.0714,0.2378 c 0.0393,0.1467 0.18982,0.4397 0.33456,0.7458 0.34158,0.7224 1.30074,1.6983 2.02472,2.0599 0.74698,0.3732 1.74199,0.5642 2.48116,0.518 l 0.61438,-0.038 0,0.872 0,0.872 -0.38961,0.047 c -0.46095,0.055 -0.80116,0.05 -1.43984,-0.033 z m 5.39405,-7.3649 -0.16423,-0.6189 c -0.48529,-1.438 -1.83686,-2.425 -3.33896,-2.8068 -0.56615,-0.1439 -1.59051,-0.1441 -2.15806,-4e-4 -1.53859,0.3894 -2.98407,1.3479 -3.32541,2.9042 l -0.11446,0.5219 c 3.13377,-0.028 6.24484,0.1114 9.10112,0 z m -45.96659,7.2954 c -2.25639,-0.3807 -4.17252,-1.9758 -4.95074,-4.1213 -0.31684,-0.8735 -0.4075,-1.5118 -0.35928,-2.5297 0.0778,-1.6424 0.60113,-2.8527 1.75586,-4.0608 0.78106,-0.8171 1.82047,-1.4387 2.8988,-1.7334 0.67892,-0.1856 2.65259,-0.1869 3.33952,0 1.12597,0.3028 2.98668,1.4569 2.82386,1.7516 -0.0372,0.067 -0.31812,0.3697 -0.62424,0.672 l -0.55659,0.5496 -0.38684,-0.3478 c -0.7887,-0.7091 -2.03581,-1.1306 -3.14858,-1.0641 -1.99203,0.119 -3.73637,1.5631 -4.22895,3.5008 -0.0618,0.2433 -0.11243,0.7289 -0.11243,1.0791 0,1.2544 0.43033,2.2887 1.32775,3.1914 0.62314,0.6268 1.11663,0.9382 1.90045,1.1995 0.42628,0.142 0.67593,0.1731 1.39148,0.1731 l 0.87199,0 -1e-5,0.8633 c -10e-6,0.8326 -0.006,0.8649 -0.16698,0.9081 -0.22772,0.061 -1.34989,0.043 -1.77507,-0.029 z m 3.87154,-0.8059 0,-0.8992 0.24119,0 c 1.17048,-0.01 2.6776,-0.7916 3.42354,-1.7839 0.67191,-0.8938 0.88668,-1.5638 1.00499,-3.1349 0.11781,-1.5645 0.54282,-2.6749 1.44169,-3.7668 0.8416,-1.0223 2.37047,-1.9133 3.61657,-2.1077 0.18022,-0.028 0.38612,-0.068 0.45755,-0.088 0.11867,-0.034 0.12987,0.043 0.12987,0.8811 l 0,0.9178 -0.43819,0.091 c -1.45738,0.301 -2.84504,1.6468 -3.30418,3.2045 -0.0662,0.2245 -0.15162,0.859 -0.18988,1.41 -0.0383,0.551 -0.12189,1.1992 -0.18583,1.4404 -0.69378,2.6172 -2.86429,4.4251 -5.62218,4.6828 l -0.57514,0.054 0,-0.8993 z m 12.67929,-8.5728 c 0.59369,0 1.18738,-2e-4 1.78107,-2e-4 0,3.0179 0,6.437 0,9.4549 -0.59369,0 -1.18738,2e-4 -1.78107,2e-4 0,-3.0179 0,-6.437 0,-9.4549 z m 33.13315,3.1838 0,-6.2709 0.89053,0 1.22438,0 0,0.8232 0,0.8232 0.38357,-0.3448 c 0.67873,-0.6103 1.3184,-1.098 2.36237,-1.3508 0.77236,-0.1871 2.1414,-0.167 2.91711,0.041 2.37086,0.6353 4.19197,2.526 4.66908,4.8475 0.0977,0.4754 0.11756,1.1743 0.11756,4.1373 l 0,3.5653 -0.84776,0 -1.10072,0 -0.0308,-3.5436 c -0.0341,-3.9248 -0.0267,-3.8577 -0.54697,-4.9165 -0.3235,-0.6583 -1.01834,-1.5488 -1.65983,-1.9094 -1.34253,-0.7548 -2.51978,-0.7974 -3.90277,-0.1168 -0.79405,0.3908 -1.59702,1.2585 -1.96873,2.0262 -0.49037,1.0127 -0.37873,1.0545 -0.49437,4.9506 l 0,3.5095 -1.12211,0 -0.89053,0 0,-6.2709 z m -32.87341,-4.3615 c -1.1676,-0.5146 -1.13326,-2.2534 0.0543,-2.7496 0.39864,-0.1666 0.79016,-0.1418 1.23093,0.078 1.08803,0.5422 1.07558,2.1384 -0.0205,2.6363 -0.3499,0.1589 -0.94666,0.1757 -1.26466,0.036 z"
       id="path3985"
       inkscape:connector-curvature="0"
       clip-path="none"
       transform="matrix(0.96,0,0,0.96,14.156143,41.556074)"
       inkscape:export-xdpi="90"
       inkscape:export-ydpi="90" />
    <text
       xml:space="preserve"
       style="font-size:9px;font-style:normal;font-variant:normal;font-weight:600;font-stretch:normal;text-align:start;line-height:125%;letter-spacing:0px;word-spacing:0px;writing-mode:lr-tb;text-anchor:start;fill:url(#linearGradient4049);fill-opacity:1;stroke:none;font-family:URW Gothic L;-inkscape-font-specification:URW Gothic L Semi-Bold"
       x="337.30072"
       y="1031.9115"
       id="text3853"
       sodipodi:linespacing="125%"
       inkscape:export-xdpi="90"
       inkscape:export-ydpi="90"><tspan
         sodipodi:role="line"
         id="tspan3855"
         x="337.30072"
         y="1031.9115"
         style="font-size:9px;font-style:normal;font-variant:normal;font-weight:600;font-stretch:normal;text-align:start;line-height:125%;writing-mode:lr-tb;text-anchor:start;fill:url(#linearGradient4049);fill-opacity:1;font-family:URW Gothic L;-inkscape-font-specification:URW Gothic L Semi-Bold"
         dx="0 0.14367816 0.071839079 0 0.037793584 -0.43290854 -0.11150671 0 -0.43478259">powered by</tspan></text>
  </g>
</svg>
