<?xml version="1.0" encoding="utf-8"?>
<!-- Generator: Adobe Illustrator 17.0.0, SVG Export Plug-In . SVG Version: 6.00 Build 0)  -->
<!DOCTYPE svg PUBLIC "-//W3C//DTD SVG 1.1//EN" "http://www.w3.org/Graphics/SVG/1.1/DTD/svg11.dtd">
<svg version="1.1" id="Calque_1" xmlns="http://www.w3.org/2000/svg" xmlns:xlink="http://www.w3.org/1999/xlink" x="0px" y="0px"
	 width="139.264px" height="68.338px" viewBox="0 0 139.264 68.338" enable-background="new 0 0 139.264 68.338"
	 xml:space="preserve">
<path id="XMLID_467_" fill="#35A9DE" d="M81.545,9.651l4.972,5.18c10.801-10.367,27.868-10.113,38.118,0.567
	c10.25,10.679,9.804,27.741-0.998,38.107c-10.79,10.356-27.831,10.112-38.085-0.535l-5.273,4.997
	c12.997,13.541,34.635,13.863,48.33,0.719c13.695-13.144,14.261-34.776,1.265-48.317C116.879-3.171,95.241-3.493,81.545,9.651z"/>
<g id="Ocsigen_7_">
	<path fill="#7C8081" d="M113.961,23.412c-2.887,0-5.383,1.17-7.14,3.043v-2.772h-2.613v19.35h2.613V32.969
		c0.156-3.863,3.277-6.944,7.177-6.944c3.94,0,7.179,3.237,7.179,7.217v9.791h2.613v-9.791
		C123.791,27.702,119.226,23.412,113.961,23.412z"/>
	<path fill="#7C8081" d="M85.158,26.407c-3.825,3.845-3.834,9.943,0.042,13.792c2.276,2.261,5.309,3.186,8.2,2.812v-2.627
		c-2.223,0.386-4.597-0.291-6.329-2.012c-1.078-1.073-1.745-2.395-1.997-3.746l16.743-0.079c0.348-2.951-0.599-6.038-2.812-8.239
		C95.076,22.405,89.034,22.504,85.158,26.407z M85.065,31.98c0.245-1.353,0.901-2.68,1.974-3.759
		c2.805-2.821,7.329-2.836,10.15-0.031c1.08,1.073,1.745,2.395,1.999,3.746L85.065,31.98z"/>
	<path fill="#7C8081" d="M70.079,23.529c-5.54,0-9.753,4.33-9.753,9.83c0,5.421,4.293,9.751,9.753,9.751
		c2.887,0,5.423-1.17,7.219-3.081v0.075c0,3.98-3.162,7.14-7.14,7.14v2.613c5.46,0,9.751-4.33,9.751-9.753V33.32
		C79.872,27.819,75.308,23.529,70.079,23.529z M77.298,33.632c-0.156,3.821-3.356,6.864-7.179,6.864
		c-3.977,0-7.179-3.197-7.179-7.177c0-3.94,3.202-7.177,7.179-7.177c3.94,0,7.179,3.237,7.179,7.177V33.632z"/>
	<g>
		<path fill="#7C8081" d="M56.578,22.595c-1.17,0-2.223,1.016-2.223,2.263c0,1.249,1.053,2.223,2.223,2.223
			c1.249,0,2.263-0.974,2.263-2.223C58.841,23.61,57.827,22.595,56.578,22.595z"/>
		<rect x="55.291" y="29.177" fill="#7C8081" width="2.613" height="13.856"/>
	</g>
	<path fill="#7C8081" d="M43.081,33.242c0,3.14-2.012,5.804-4.841,6.758l-0.099-0.099v0.134c-0.692,0.223-1.428,0.344-2.199,0.344
		v2.613c0.76,0,1.494-0.09,2.199-0.249c4.37-0.983,7.554-4.835,7.554-9.502c0-3.579,2.609-6.538,6.069-7.052v-2.642
		C46.821,24.073,43.081,28.178,43.081,33.242z"/>
	<path fill="#7C8081" d="M26.371,38.273c-2.81-2.807-2.81-7.371,0-10.141c2.807-2.81,7.334-2.81,10.141,0l0.04,0.037l1.833-1.871
		c-3.707-3.706-9.987-3.903-13.887,0c-3.823,3.861-3.823,9.947,0.037,13.847c2.298,2.296,5.381,3.204,8.314,2.763v-2.669
		C30.573,40.693,28.11,40.038,26.371,38.273z"/>
	<path fill="#7C8081" d="M9.752,23.569C4.213,23.569,0,27.896,0,33.399c0,5.421,4.29,9.751,9.752,9.751c5.5,0,9.83-4.33,9.83-9.751
		C19.582,27.859,15.018,23.569,9.752,23.569z M9.791,40.536c-3.94,0-7.178-3.237-7.178-7.177c0-3.98,3.238-7.179,7.178-7.179
		c3.98,0,7.177,3.2,7.177,7.179C16.968,37.299,13.771,40.536,9.791,40.536z"/>
</g>
</svg>
