<?xml version="1.0" encoding="UTF-8" standalone="no"?>
<!-- Created with Inkscape (http://www.inkscape.org/) -->

<svg
   xmlns:dc="http://purl.org/dc/elements/1.1/"
   xmlns:cc="http://creativecommons.org/ns#"
   xmlns:rdf="http://www.w3.org/1999/02/22-rdf-syntax-ns#"
   xmlns:svg="http://www.w3.org/2000/svg"
   xmlns="http://www.w3.org/2000/svg"
   xmlns:sodipodi="http://sodipodi.sourceforge.net/DTD/sodipodi-0.dtd"
   xmlns:inkscape="http://www.inkscape.org/namespaces/inkscape"
   id="svg2"
   version="1.1"
   inkscape:version="0.48.5 r10040"
   width="551.4375"
   height="236.12125"
   viewBox="0 0 551.4375 236.12125"
   xml:space="preserve"
   sodipodi:docname="logo_red.svg"><metadata
     id="metadata8"><rdf:RDF><cc:Work
         rdf:about=""><dc:format>image/svg+xml</dc:format><dc:type
           rdf:resource="http://purl.org/dc/dcmitype/StillImage" /><dc:title></dc:title></cc:Work></rdf:RDF></metadata><defs
     id="defs6"><clipPath
       clipPathUnits="userSpaceOnUse"
       id="clipPath16"><path
         d="M 0,700 900,700 900,0 0,0 0,700 z"
         id="path18"
         inkscape:connector-curvature="0" /></clipPath></defs><sodipodi:namedview
     pagecolor="#ffffff"
     bordercolor="#666666"
     borderopacity="1"
     objecttolerance="10"
     gridtolerance="10"
     guidetolerance="10"
     inkscape:pageopacity="0"
     inkscape:pageshadow="2"
     inkscape:window-width="640"
     inkscape:window-height="480"
     id="namedview4"
     showgrid="false"
     inkscape:zoom="0.26971429"
     inkscape:cx="257.30237"
     inkscape:cy="100.03688"
     inkscape:window-x="0"
     inkscape:window-y="0"
     inkscape:window-maximized="0"
     inkscape:current-layer="g10"
     fit-margin-top="0"
     fit-margin-left="0"
     fit-margin-right="0"
     fit-margin-bottom="0" /><g
     id="g10"
     inkscape:groupmode="layer"
     inkscape:label="logo_CMYK"
     transform="matrix(1.25,0,0,-1.25,-305.19762,573.58438)"><g
       id="g12"><g
         id="g14"
         clip-path="url(#clipPath16)"><g
           id="g20"
           transform="translate(381.0791,373.4805)"><path
             d="m 0,0 c 1.811,-1.964 2.865,-4.981 3.17,-9.058 l -23.096,0 c 0.149,3.924 1.281,6.942 3.397,9.058 2.112,2.111 4.829,3.17 8.151,3.17 C -4.755,3.17 -1.964,2.111 0,0 m -28.982,7.924 c -4.681,-5.434 -7.019,-12.984 -7.019,-22.642 0,-10.114 2.412,-17.887 7.245,-23.321 4.829,-5.586 11.548,-8.378 20.152,-8.378 7.093,0 12.98,1.733 17.661,5.208 4.676,3.318 7.846,8.151 9.509,14.491 l -11.321,0 c -1.811,0 -3.209,-0.379 -4.188,-1.133 -0.984,-0.756 -1.55,-1.358 -1.699,-1.811 -0.453,-0.452 -0.87,-0.87 -1.246,-1.245 -0.378,-0.378 -0.792,-0.644 -1.245,-0.792 -1.811,-1.058 -4.001,-1.585 -6.565,-1.585 -3.928,0 -6.871,1.206 -8.831,3.622 -2.116,2.265 -3.248,5.735 -3.397,10.416 l 39.171,0 c 0.149,0.301 0.227,0.828 0.227,1.585 l 0,0.905 0,1.585 c 0,9.963 -2.416,17.735 -7.245,23.321 -4.982,5.435 -12.001,8.152 -21.058,8.152 -8.604,0 -15.322,-2.795 -20.151,-8.378 m 284.754,-4.161 -0.232,0 0,11.245 -6.956,0 0,-60.054 6.956,0 0,29.447 c 0,13.449 4.174,25.042 19.825,24.694 l 0,7.536 c -10.087,0 -15.767,-3.246 -19.593,-12.868 M -42.473,-83.552 c -41.14,0 -74.49,33.351 -74.49,74.491 0,41.14 33.35,74.492 74.49,74.492 41.141,0 74.492,-33.352 74.492,-74.492 0,-41.14 -33.351,-74.491 -74.492,-74.491 m 0,168.939 c -52.162,0 -94.448,-42.286 -94.448,-94.449 0,-52.162 42.286,-94.448 94.448,-94.448 52.162,0 94.449,42.286 94.449,94.448 0,52.163 -42.287,94.449 -94.449,94.449 M 78.172,0.053 c 0,6.144 4.753,10.317 13.563,10.317 8.696,0 14.956,-3.361 16.232,-12.637 l 7.071,0 c -1.738,13.565 -10.202,18.898 -23.186,18.898 -13.332,0 -21.1,-7.188 -21.1,-17.158 0,-23.651 38.49,-11.362 38.49,-28.751 0,-5.797 -4.754,-11.13 -14.84,-11.13 -10.433,0 -15.766,3.826 -17.969,14.143 l -7.073,0 c 0.58,-11.361 8.696,-20.404 22.839,-20.404 14.145,0 24.462,6.028 24.462,17.506 0,23.071 -38.489,12.869 -38.489,29.216 m 74.427,-40.461 c -12.637,0 -20.289,11.594 -20.289,25.157 0,14.492 7.188,25.621 20.289,25.621 11.709,0 20.404,-8.463 20.519,-23.534 0.58,-15.071 -6.144,-27.244 -20.519,-27.244 m 0.811,57.039 c -7.652,0 -16.81,-4.289 -20.868,-12.173 l -0.232,0 0,10.55 -6.956,0 0,-83.704 6.956,0 0,33.273 c 4.406,-7.304 12.985,-11.246 21.448,-11.246 18.317,0 26.78,14.956 26.78,31.766 0,17.738 -7.767,31.534 -27.128,31.534 m 60.049,-57.039 c -13.332,0 -20.404,10.433 -20.404,25.389 0,12.985 5.797,25.389 20.404,25.389 14.724,0 20.288,-11.245 20.404,-25.389 0,-12.869 -5.797,-25.389 -20.404,-25.389 m 0,57.039 c -18.549,0 -27.823,-14.144 -27.823,-31.65 0,-20.984 12.52,-31.418 27.823,-31.65 16.811,0 27.824,12.637 27.824,31.65 0,17.622 -9.043,31.65 -27.824,31.65 m 85.089,-57.039 c -5.797,0 -6.028,2.551 -6.028,8.463 l 0,41.156 11.245,0 0,5.797 -11.245,0 0,16.694 -6.957,0 0,-16.694 -8.462,0 0,-5.797 8.462,0 0,-43.939 c 0,-8.926 3.826,-11.941 10.666,-11.941 3.362,0 6.376,1.044 8,1.392 l 0,5.68 c -1.855,-0.464 -3.827,-0.811 -5.681,-0.811 m -354.927,11.879 c -2.265,-3.17 -5.513,-4.755 -9.736,-4.755 -4.076,0 -7.246,1.585 -9.51,4.755 -2.116,2.865 -3.17,7.471 -3.17,13.811 0,5.434 1.132,9.737 3.397,12.906 2.263,3.018 5.507,4.529 9.735,4.529 3.924,0 7.019,-1.585 9.284,-4.755 2.264,-3.022 3.396,-7.246 3.396,-12.68 0,-6.039 -1.132,-10.641 -3.396,-13.811 m -5.208,44.831 c -3.927,0 -7.245,-0.757 -9.963,-2.264 -3.17,-1.811 -5.586,-4.153 -7.245,-7.019 l 0,18.114 c 0,2.111 -0.757,3.923 -2.265,5.433 -1.51,1.507 -3.321,2.265 -5.433,2.265 l -7.698,0 0,-51.851 c 0,-10.719 3.091,-17.965 9.283,-21.736 6.187,-3.775 12.906,-5.661 20.151,-5.661 3.772,0 7.585,0.645 11.435,1.925 3.848,1.28 6.905,3.357 9.17,6.226 4.528,5.887 6.792,13.508 6.792,22.869 0,9.358 -2.264,16.982 -6.792,22.869 -4.529,5.886 -10.341,8.83 -17.435,8.83"
             style="fill:#ee3638;fill-opacity:1;fill-rule:evenodd;stroke:none"
             id="path22"
             inkscape:connector-curvature="0" /></g></g></g></g></svg>
