<?xml version="1.0" encoding="UTF-8" standalone="no"?>
<!-- Generator: Adobe Illustrator 19.2.1, SVG Export Plug-In . SVG Version: 6.00 Build 0)  -->

<svg
   xmlns:dc="http://purl.org/dc/elements/1.1/"
   xmlns:cc="http://creativecommons.org/ns#"
   xmlns:rdf="http://www.w3.org/1999/02/22-rdf-syntax-ns#"
   xmlns:svg="http://www.w3.org/2000/svg"
   xmlns="http://www.w3.org/2000/svg"
   xmlns:sodipodi="http://sodipodi.sourceforge.net/DTD/sodipodi-0.dtd"
   xmlns:inkscape="http://www.inkscape.org/namespaces/inkscape"
   version="1.1"
   id="Layer_1"
   x="0px"
   y="0px"
   viewBox="0 0 258.29999 98.6"
   enable-background="new 0 0 595.3 595.3"
   xml:space="preserve"
   inkscape:version="0.92.2 (5c3e80d, 2017-08-06)"
   sodipodi:docname="irif.svg"
   width="258.29999"
   height="98.599998"><metadata
     id="metadata3939"><rdf:RDF><cc:Work
         rdf:about=""><dc:format>image/svg+xml</dc:format><dc:type
           rdf:resource="http://purl.org/dc/dcmitype/StillImage" /><dc:title></dc:title></cc:Work></rdf:RDF></metadata><defs
     id="defs3937" /><sodipodi:namedview
     pagecolor="#ffffff"
     bordercolor="#666666"
     borderopacity="1"
     objecttolerance="10"
     gridtolerance="10"
     guidetolerance="10"
     inkscape:pageopacity="0"
     inkscape:pageshadow="2"
     inkscape:window-width="2880"
     inkscape:window-height="1817"
     id="namedview3935"
     showgrid="false"
     inkscape:zoom="2.4251465"
     inkscape:cx="337.02708"
     inkscape:cy="122.91697"
     inkscape:window-x="0"
     inkscape:window-y="24"
     inkscape:window-maximized="0"
     inkscape:current-layer="g3941"
     fit-margin-top="20"
     fit-margin-left="20"
     fit-margin-right="20"
     fit-margin-bottom="20" /><g
     id="g3941"
     transform="translate(-18.2,-217.7)"><path
       id="path3821"
       d="m 43.5,296.3 c -2.9,0 -5.3,-2.4 -5.3,-5.3 v -48 c 0,-2.9 2.4,-5.3 5.3,-5.3 2.9,0 5.3,2.4 5.3,5.3 v 48 c -0.1,2.9 -2.4,5.3 -5.3,5.3 m 63.4,0 c -2.9,0 -5.3,-2.4 -5.3,-5.3 v -48 c 0,-2.9 2.4,-5.3 5.3,-5.3 2.9,0 5.3,2.4 5.3,5.3 v 48 c -0.1,2.9 -2.4,5.3 -5.3,5.3 m 63.8,0 c -2.9,0 -5.3,-2.4 -5.3,-5.3 v -48 c 0,-2.9 2.4,-5.3 5.3,-5.3 2.9,0 5.3,2.4 5.3,5.3 v 48 c 0,2.9 -2.4,5.3 -5.3,5.3 m 63.2,0 c -2.9,0 -5.3,-2.4 -5.3,-5.3 v -48 c 0,-2.9 2.4,-5.3 5.3,-5.3 2.9,0 5.3,2.4 5.3,5.3 v 48 c 0,2.9 -2.4,5.3 -5.3,5.3"
       inkscape:connector-curvature="0"
       style="fill:#1d1d1b" /><circle
       id="ellipse3823"
       cy="244.10001"
       cx="122.4"
       r="6.3000002"
       style="fill:#1d1d1b" /><g
       id="g3825"><circle
         id="ellipse3827"
         cy="244.10001"
         cx="250.2"
         r="6.3000002"
         style="fill:#1d1d1b" /><circle
         id="ellipse3829"
         cy="260"
         cx="250.2"
         r="6.3000002"
         style="fill:#1d1d1b" /></g></g></svg>