<svg width="181" height="49" viewBox="0 0 181 49" fill="none" xmlns="http://www.w3.org/2000/svg">
<path d="M101.78 18.5859C98.3642 18.5859 95.6074 21.0376 95.6074 24.9245C95.6074 29.0505 98.1844 31.4424 101.78 31.4424C103.638 31.4424 105.316 30.9042 106.874 29.8279L105.496 27.6752C104.477 28.3329 103.338 28.7515 102.08 28.7515C100.402 28.7515 99.383 27.8546 99.1433 26.1204H107.054C107.174 25.5822 107.294 25.0441 107.294 24.1471C107.294 20.918 105.316 18.5859 101.78 18.5859ZM101.9 20.9778C103.518 20.9778 104.117 22.1738 104.117 23.7285H99.1433C99.4429 21.9944 100.522 20.9778 101.9 20.9778Z" fill="black"/>
<path d="M152.302 18.5859C148.886 18.5859 146.129 21.0376 146.129 24.9245C146.129 29.0505 148.706 31.4424 152.302 31.4424C154.16 31.4424 155.838 30.9042 157.396 29.8279L156.017 27.6752C154.999 28.3329 153.86 28.7515 152.601 28.7515C150.923 28.7515 149.904 27.8546 149.665 26.1204H157.576C157.695 25.5822 157.815 25.0441 157.815 24.1471C157.755 20.918 155.838 18.5859 152.302 18.5859ZM152.362 20.9778C153.98 20.9778 154.579 22.1738 154.579 23.7285H149.605C149.904 21.9944 150.983 20.9778 152.362 20.9778Z" fill="black"/>
<path d="M165.126 18.5859C161.71 18.5859 158.953 21.0376 158.953 24.9245C158.953 29.0505 161.53 31.4424 165.126 31.4424C166.984 31.4424 168.662 30.9042 170.22 29.8279L168.842 27.6752C167.823 28.3329 166.684 28.7515 165.426 28.7515C163.748 28.7515 162.729 27.8546 162.489 26.1204H170.4C170.52 25.5822 170.639 25.0441 170.639 24.1471C170.639 20.918 168.662 18.5859 165.126 18.5859ZM165.246 20.9778C166.864 20.9778 167.463 22.1738 167.463 23.7285H162.489C162.789 21.9944 163.867 20.9778 165.246 20.9778Z" fill="black"/>
<path d="M120.418 21.6958C118.68 21.2772 117.122 20.8587 117.122 19.5431C117.122 18.4668 118.141 17.7492 119.699 17.7492C121.137 17.7492 122.635 18.108 124.014 18.7657L125.212 16.1945C123.295 15.2975 121.437 14.8789 119.519 14.8789C116.043 14.8789 113.646 16.7924 113.646 19.6029C113.646 23.131 116.523 23.8485 119.1 24.5661C120.897 25.0445 122.456 25.4033 122.456 26.7786C122.456 27.9746 121.437 28.6323 119.699 28.6323C118.201 28.6323 116.523 28.154 114.964 27.1972L113.406 29.7685C115.144 30.7851 117.601 31.5026 119.759 31.5026C123.534 31.5026 125.932 29.7087 125.932 26.7188C125.932 23.0712 122.875 22.2938 120.418 21.6958Z" fill="black"/>
<path d="M76.1906 23.7891V22.7127C76.1906 21.8158 75.6512 21.2776 74.5125 21.2776C73.3139 21.2776 72.1153 21.756 70.6171 22.4735L69.4185 20.0218C71.0965 19.1847 73.0143 18.6465 74.6923 18.6465C78.2282 18.6465 79.6066 20.3806 79.6066 22.8921V28.0347C79.6066 28.6925 80.0261 28.9915 80.6254 28.9915V31.3236C78.2881 31.3236 77.3292 30.9648 76.67 29.8286C75.6512 30.905 74.5125 31.5628 72.8345 31.5628C70.677 31.5628 69.1788 30.2472 69.1788 28.3337C69.1189 25.5232 71.6359 24.0881 76.1906 23.7891ZM73.8533 29.0513C74.8721 29.0513 75.6512 28.6327 76.1906 28.0347V25.6428C74.2728 25.7624 72.415 26.2408 72.415 27.7955C72.415 28.5131 73.0143 29.0513 73.8533 29.0513Z" fill="black"/>
<path d="M82.6621 18.8849H85.8384L86.0182 20.3201C86.9171 19.3633 88.2356 18.5859 89.7338 18.5859C92.4906 18.5859 93.6293 20.2603 93.6293 23.0708V31.2032H90.2732V22.9512C90.2732 21.8748 89.7938 21.0974 88.6551 21.0974C87.6363 21.0974 86.7373 21.6356 86.0182 22.5326V31.1434H82.6621V18.8849Z" fill="black"/>
<path d="M128.689 21.2775H126.711V18.8856H128.689V15.8359H132.045V18.8856H134.801V21.2775H132.045V27.3769C132.045 28.2738 132.404 28.7522 133.183 28.7522C133.783 28.7522 134.382 28.5728 134.861 28.214L136.12 30.2471C135.161 30.9647 133.903 31.5029 132.524 31.5029C129.947 31.5029 128.749 30.2471 128.749 27.4965V21.2775H128.689Z" fill="black"/>
<path d="M137.619 18.8849H140.735L140.975 20.7984C141.934 19.1241 143.073 18.5859 144.511 18.5859C145.11 18.5859 145.59 18.7055 146.009 18.8251L145.53 21.8748C145.11 21.6954 144.571 21.5758 143.852 21.5758C142.593 21.5758 141.754 22.3532 140.975 23.7883V31.2032H137.619V18.8849Z" fill="black"/>
<path d="M173.577 21.2775H171.6V18.8856H173.577V15.8359H176.933V18.8856H179.69V21.2775H176.933V27.3769C176.933 28.2738 177.293 28.7522 178.072 28.7522C178.671 28.7522 179.271 28.5728 179.75 28.214L181.009 30.2471C180.05 30.9647 178.791 31.5029 177.413 31.5029C174.836 31.5029 173.637 30.2471 173.637 27.4965V21.2775H173.577Z" fill="black"/>
<path d="M63.3053 15.1777V25.8217C63.3053 27.496 62.5262 28.393 61.0879 28.393C60.129 28.393 59.4098 27.9146 58.8105 27.1372L56.5332 29.2302C57.7318 30.6653 59.3499 31.4427 61.2677 31.4427C64.6237 31.4427 66.7213 29.5291 66.7213 25.8815V15.1777H63.3053Z" fill="black"/>
<path d="M7.87034 33.536L10.2675 32.2803C10.3874 32.2205 10.5672 32.2803 10.6271 32.3999C13.4438 37.0043 18.418 40.054 24.1713 40.054C32.8012 39.9942 39.753 32.9979 39.753 24.387C39.753 15.7762 32.6813 8.77986 24.0514 8.83965C15.4215 8.83965 8.40971 15.8958 8.46964 24.5066C8.46964 25.5232 8.5895 26.4799 8.76929 27.4367C8.82922 27.6161 8.70936 27.7357 8.52957 27.7955L5.89266 28.4532C5.7728 28.513 5.59301 28.3934 5.53308 28.2739C5.29336 27.0779 5.1735 25.8222 5.1735 24.5664C5.1735 14.1616 13.6236 5.61059 24.0514 5.61059C34.4792 5.61059 43.0492 14.042 43.0492 24.4468C43.0492 34.8516 34.5991 43.4026 24.1713 43.4026C17.1595 43.4026 11.0466 39.6354 7.75048 34.0144C7.69056 33.835 7.75048 33.6556 7.87034 33.536ZM34.0597 28.513L36.4569 29.8286C36.5768 29.8884 36.8165 29.8286 36.8764 29.709C37.5356 28.0945 37.8952 26.3603 37.9551 24.5664C38.0151 16.9123 31.8423 10.6934 24.2312 10.6336H24.1113C16.5602 10.6336 10.3874 16.7927 10.2675 24.3272C10.2076 31.9215 16.3804 38.1404 23.9915 38.2002H24.1113C27.7071 38.2002 31.0033 36.8249 33.4604 34.4928C33.5803 34.3732 33.5803 34.1938 33.5203 34.0742L31.4827 32.2205C31.3629 32.1009 31.1831 32.1607 31.0632 32.2205C29.2054 33.835 26.7483 34.8516 24.1113 34.8516H24.0514C18.2382 34.7918 13.5637 30.0678 13.6236 24.2674C13.6835 18.5269 18.418 13.8626 24.1113 13.8626H24.1713C29.9845 13.9224 34.659 18.6465 34.5991 24.4468C34.5991 25.7026 34.3593 26.8985 33.9398 28.0347C33.8799 28.2739 33.9398 28.3934 34.0597 28.513ZM38.0151 4.83322C37.8952 4.77342 37.7154 4.77342 37.5956 4.89302L36.0973 7.10553C36.0374 7.22512 36.0374 7.40451 36.1572 7.52411C41.4311 11.2914 44.907 17.4505 44.907 24.4468C44.907 35.8681 35.5579 45.1966 24.1113 45.1966C12.6647 45.1368 3.3756 35.8681 3.3756 24.4468C3.3756 13.0255 12.7247 3.69707 24.1713 3.69707C26.6883 3.69707 29.0256 4.11565 31.243 4.95282C31.3629 5.01261 31.5426 4.95282 31.6026 4.77342L32.5615 2.26193C32.6214 2.14233 32.5615 1.96294 32.3817 1.90314C29.8047 0.946381 26.988 0.408203 24.1113 0.408203C10.8668 0.408203 0.0195312 11.1718 0.0195312 24.4468C0.0195312 37.6621 10.8069 48.4854 24.1113 48.4854C37.3558 48.4854 48.2031 37.7219 48.2031 24.4468C48.2031 16.3143 44.1878 9.19844 38.0151 4.83322Z" fill="black"/>
</svg>
