<?xml version="1.0" encoding="utf-8"?>
<!-- Generator: Adobe Illustrator 17.0.0, SVG Export Plug-In . SVG Version: 6.00 Build 0)  -->
<!DOCTYPE svg PUBLIC "-//W3C//DTD SVG 1.1//EN" "http://www.w3.org/Graphics/SVG/1.1/DTD/svg11.dtd">
<svg version="1.1" id="Calque_1" xmlns="http://www.w3.org/2000/svg" xmlns:xlink="http://www.w3.org/1999/xlink" x="0px" y="0px"
	 width="938px" height="483.449px" viewBox="0 0 938 483.449" enable-background="new 0 0 938 483.449" xml:space="preserve">
<g>
	<path id="SVGID_5_" fill="none" stroke="#DEDEDD" stroke-width="4" stroke-miterlimit="10" d="M163.14,307.307
		C163.14,139,299.58,2.56,467.888,2.56S772.635,139,772.635,307.307"/>
	<g>
		<g>
			<circle fill="#989898" stroke="#FFFFFF" stroke-width="4" stroke-miterlimit="10" cx="860.897" cy="405.606" r="74.938"/>
			<text transform="matrix(1 0 0 1 845.978 454.565)" fill="#FFFFFF" font-family="'WorkSans-Medium'" font-size="17.9851">iOS</text>
			<g>
				<path fill="#DEDEDD" d="M876.049,426.581h-30.377c-2.267,0-4.106-1.839-4.106-4.106v-61.73c0-2.267,1.839-4.106,4.106-4.106
					h30.375c2.268,0,4.107,1.839,4.107,4.106v61.729C880.156,424.742,878.317,426.581,876.049,426.581z"/>
				<rect x="841.639" y="363.399" fill="#FFFFFF" width="38.589" height="48.236"/>
				<circle fill="#888888" cx="860.861" cy="419.346" r="3.618"/>
				<path fill="#888888" d="M860.861,361.463h-4.824c-0.667,0-1.206-0.539-1.206-1.206s0.539-1.206,1.206-1.206h4.824
					c0.667,0,1.206,0.539,1.206,1.206S861.528,361.463,860.861,361.463z"/>
				<path fill="#888888" d="M865.685,361.463h-1.206c-0.667,0-1.206-0.539-1.206-1.206s0.539-1.206,1.206-1.206h1.206
					c0.667,0,1.206,0.539,1.206,1.206S866.352,361.463,865.685,361.463z"/>
				<g id="XMLID_7_">
					<path id="XMLID_9_" fill="#565656" d="M853.357,384.78c-1.748,3.033-0.637,7.637,1.296,10.428
						c0.965,1.395,1.942,2.648,3.28,2.648c0.025,0,0.051,0,0.076-0.001c0.629-0.025,1.083-0.219,1.522-0.406
						c0.493-0.21,1.003-0.427,1.803-0.427c0.761,0,1.247,0.21,1.716,0.413c0.463,0.2,0.94,0.407,1.644,0.394
						c1.507-0.028,2.433-1.38,3.249-2.572c0.852-1.245,1.279-2.454,1.424-2.916l0.006-0.018c0.027-0.082-0.011-0.172-0.09-0.208
						c-0.002-0.001-0.01-0.004-0.012-0.005c-0.265-0.109-2.594-1.141-2.618-3.956c-0.023-2.287,1.747-3.498,2.101-3.718l0.017-0.01
						c0.038-0.025,0.065-0.064,0.074-0.109c0.009-0.045,0-0.091-0.026-0.129c-1.221-1.787-3.093-2.056-3.847-2.089
						c-0.109-0.011-0.222-0.016-0.336-0.016c-0.885,0-1.733,0.334-2.414,0.603c-0.47,0.185-0.876,0.346-1.156,0.346
						c-0.315,0-0.723-0.162-1.196-0.35c-0.633-0.251-1.349-0.535-2.108-0.535c-0.018,0-0.036,0-0.054,0.001
						C855.944,382.171,854.276,383.181,853.357,384.78z"/>
					<path id="XMLID_8_" fill="#565656" d="M864.974,377.179c-1.069,0.044-2.351,0.701-3.117,1.599
						c-0.651,0.754-1.287,2.012-1.12,3.28c0.011,0.079,0.075,0.141,0.155,0.147c0.072,0.006,0.146,0.008,0.219,0.009
						c1.045,0,2.172-0.578,2.942-1.509c0.81-0.983,1.22-2.244,1.096-3.374C865.14,377.241,865.062,377.176,864.974,377.179z"/>
				</g>
			</g>
		</g>
		<g>
			<circle fill="#DEDEDD" stroke="#FFFFFF" stroke-width="4" stroke-miterlimit="10" cx="764.84" cy="309.585" r="74.938"/>
			<g>
				<path fill="#989898" d="M780.028,330.56h-30.377c-2.267,0-4.106-1.839-4.106-4.106v-61.73c0-2.267,1.839-4.106,4.106-4.106
					h30.375c2.268,0,4.107,1.839,4.107,4.106v61.729C784.134,328.721,782.295,330.56,780.028,330.56z"/>
				<rect x="745.545" y="269.065" fill="#D4DF67" width="38.589" height="54.579"/>
				<path fill="#565656" d="M767.894,266.141h-6.596c-0.912,0-1.649-0.539-1.649-1.206c0-0.667,0.737-1.206,1.649-1.206h6.596
					c0.912,0,1.649,0.539,1.649,1.206C769.543,265.602,768.805,266.141,767.894,266.141z"/>
				<path fill="#565656" d="M773.16,266.141h-1.206c-0.667,0-1.206-0.539-1.206-1.206c0-0.667,0.539-1.206,1.206-1.206h1.206
					c0.667,0,1.206,0.539,1.206,1.206C774.366,265.602,773.827,266.141,773.16,266.141z"/>
				<g>
					<path fill="#565656" d="M770.084,292.842h-10.489c-0.233,0-0.422,0.189-0.422,0.422v8.796c0,0.233,0.189,0.422,0.422,0.422
						h1.87v2.964c0,0.688,0.558,1.245,1.245,1.245l0,0c0.688,0,1.245-0.558,1.245-1.245v-2.964h1.742v2.964
						c0,0.688,0.557,1.245,1.245,1.245l0,0c0.688,0,1.245-0.558,1.245-1.245v-2.964h1.896c0.233,0,0.422-0.189,0.422-0.422v-8.796
						C770.507,293.032,770.317,292.842,770.084,292.842z"/>
					<path fill="#565656" d="M757.397,292.84L757.397,292.84c-0.688,0-1.245,0.558-1.245,1.245v5.058
						c0,0.688,0.558,1.245,1.245,1.245l0,0c0.688,0,1.245-0.558,1.245-1.245v-5.058C758.642,293.398,758.085,292.84,757.397,292.84z
						"/>
					<path fill="#565656" d="M772.282,292.84L772.282,292.84c-0.688,0-1.245,0.558-1.245,1.245v5.058
						c0,0.688,0.558,1.245,1.245,1.245l0,0c0.688,0,1.245-0.558,1.245-1.245v-5.058C773.528,293.398,772.97,292.84,772.282,292.84z"
						/>
					<path fill="#565656" d="M759.68,292.226h10.294c0.269,0,0.469-0.247,0.414-0.51c-0.341-1.623-1.374-2.991-2.776-3.781
						l0.88-1.588c0.06-0.108,0.021-0.243-0.087-0.303c-0.108-0.06-0.243-0.021-0.303,0.087l-0.887,1.6
						c-0.726-0.337-1.536-0.525-2.389-0.525s-1.663,0.188-2.389,0.525l-0.887-1.6c-0.06-0.108-0.195-0.146-0.302-0.087
						c-0.108,0.06-0.146,0.195-0.087,0.303l0.88,1.588c-1.402,0.79-2.435,2.158-2.776,3.781
						C759.211,291.978,759.411,292.226,759.68,292.226z M767.899,289.859c0,0.264-0.214,0.479-0.479,0.479
						c-0.264,0-0.479-0.214-0.479-0.479c0-0.264,0.214-0.479,0.479-0.479S767.899,289.595,767.899,289.859z M762.234,289.38
						c0.264,0,0.479,0.214,0.479,0.479c0,0.264-0.214,0.479-0.479,0.479c-0.264,0-0.479-0.214-0.479-0.479
						C761.755,289.595,761.97,289.38,762.234,289.38z"/>
				</g>
			</g>
			<text transform="matrix(1 0 0 1 730.4614 358.5444)" fill="#FFFFFF" font-family="'WorkSans-Medium'" font-size="17.9851">Android</text>
		</g>
		<g>
			<circle fill="#888888" stroke="#FFFFFF" stroke-width="4" stroke-miterlimit="10" cx="860.897" cy="215.913" r="74.938"/>
			<g>
				<rect x="849.714" y="223.622" fill="#CDCCCC" width="22.463" height="9.189"/>
				<path fill="#565656" d="M816.992,213.922v-45.344c0-1.277,0.87-1.624,2.09-1.624h83.726c1.221,0,1.994,0.347,1.994,1.624v45.344
					H816.992z"/>
				<path fill="#DEDEDD" d="M816.992,213.922v7.658c0,1.22,0.87,2.553,2.09,2.553h83.726c1.221,0,1.994-1.332,1.994-2.553v-7.658
					H816.992z"/>
				<rect x="821.146" y="171.548" fill="#73C6ED" width="79.642" height="37.779"/>
				<path fill="#DEDEDD" d="M879.324,234.853c0-1.123-0.918-2.042-2.042-2.042h-32.674c-1.123,0-2.042,0.919-2.042,2.042l0,0
					c0,1.123,0.919,2.042,2.042,2.042h32.674C878.405,236.895,879.324,235.976,879.324,234.853L879.324,234.853z"/>
				<path fill="#FFFFFF" d="M873.224,194.708c0.467-1.338,0.722-2.775,0.722-4.27c0-1.495-0.255-2.932-0.722-4.27
					c-0.011-0.04-0.025-0.079-0.041-0.117c-1.803-5.004-6.598-8.592-12.216-8.592c-5.618,0-10.413,3.588-12.216,8.592
					c-0.016,0.038-0.03,0.077-0.041,0.117c-0.467,1.338-0.722,2.775-0.722,4.27c0,1.495,0.255,2.932,0.722,4.27
					c0.011,0.04,0.025,0.079,0.041,0.117c1.803,5.005,6.598,8.592,12.216,8.592c5.618,0,10.413-3.588,12.216-8.592
					C873.199,194.787,873.213,194.748,873.224,194.708z M860.967,201.557c-0.494,0-1.291-0.895-1.957-2.893
					c-0.322-0.964-0.579-2.073-0.766-3.279h5.448c-0.188,1.206-0.445,2.315-0.766,3.279
					C862.258,200.662,861.461,201.557,860.967,201.557z M858.017,193.524c-0.089-0.992-0.137-2.027-0.137-3.086
					s0.047-2.094,0.137-3.086h5.899c0.089,0.992,0.137,2.027,0.137,3.086s-0.047,2.094-0.137,3.086H858.017z M849.848,190.438
					c0-1.07,0.152-2.106,0.436-3.086h5.867c-0.087,1.013-0.131,2.05-0.131,3.086s0.044,2.074,0.131,3.086h-5.867
					C850,192.543,849.848,191.508,849.848,190.438z M860.967,179.318c0.494,0,1.291,0.895,1.958,2.893
					c0.321,0.964,0.579,2.073,0.766,3.279h-5.448c0.188-1.206,0.445-2.315,0.766-3.279
					C859.675,180.213,860.472,179.318,860.967,179.318z M865.782,187.351h5.867c0.284,0.98,0.436,2.016,0.436,3.086
					s-0.152,2.106-0.436,3.086h-5.867c0.087-1.013,0.131-2.05,0.131-3.086S865.869,188.364,865.782,187.351z M870.923,185.491
					h-5.354c-0.331-2.282-0.899-4.329-1.695-5.786C866.962,180.542,869.52,182.679,870.923,185.491z M858.06,179.705
					c-0.796,1.456-1.364,3.504-1.695,5.786h-5.354C852.413,182.679,854.972,180.542,858.06,179.705z M851.011,195.384h5.354
					c0.331,2.282,0.899,4.329,1.695,5.786C854.972,200.333,852.413,198.196,851.011,195.384z M863.874,201.17
					c0.797-1.456,1.364-3.504,1.695-5.786h5.354C869.52,198.196,866.962,200.333,863.874,201.17z"/>
			</g>
			<text transform="matrix(1 0 0 1 841.6352 264.9693)" fill="#FFFFFF" font-family="'WorkSans-Medium'" font-size="17.9851">Web</text>
		</g>
		<g>
			<circle fill="#565656" cx="834.782" cy="282.662" r="9.992"/>
			<g>
				<path fill="#FFFFFF" d="M839.755,288.777c-0.54,0-1.014-0.088-1.422-0.262c-0.407-0.174-0.893-0.518-1.457-1.034
					c-0.443,0.408-0.962,0.726-1.555,0.953c-0.593,0.228-1.244,0.342-1.951,0.342c-0.755,0-1.43-0.133-2.023-0.396
					c-0.594-0.263-1.056-0.632-1.386-1.107c-0.33-0.473-0.495-1.016-0.495-1.628c0-0.706,0.213-1.351,0.639-1.933
					c0.425-0.582,1.124-1.107,2.095-1.574c-0.504-0.635-0.852-1.157-1.043-1.564c-0.192-0.408-0.288-0.833-0.288-1.277
					c0-0.467,0.117-0.914,0.351-1.34c0.233-0.425,0.578-0.768,1.033-1.026s1.008-0.386,1.655-0.386c0.887,0,1.607,0.219,2.158,0.657
					c0.551,0.437,0.827,1.069,0.827,1.897c0,0.696-0.174,1.302-0.522,1.817c-0.347,0.515-0.977,1.013-1.888,1.493
					c0.492,0.611,0.857,1.055,1.097,1.331c0.66,0.791,1.121,1.337,1.386,1.636c0.431-0.78,0.647-1.667,0.647-2.662l-0.018-0.414
					l1.421,0.108c0.023,0.731-0.06,1.438-0.252,2.122c-0.192,0.683-0.492,1.295-0.9,1.834c0.432,0.42,0.803,0.699,1.115,0.836
					c0.311,0.138,0.683,0.195,1.115,0.171L839.755,288.777z M831.841,286.834c0.432,0.347,0.959,0.521,1.584,0.521
					c0.958,0,1.804-0.275,2.535-0.826c-0.551-0.587-1.055-1.157-1.51-1.709l-0.269-0.306l-1.134-1.348
					c-0.731,0.444-1.223,0.839-1.474,1.187c-0.252,0.348-0.378,0.738-0.378,1.169C831.194,286.049,831.409,286.487,831.841,286.834z
					 M832.939,278.372c-0.228,0.246-0.342,0.56-0.342,0.944c0,0.301,0.068,0.588,0.207,0.864c0.138,0.276,0.434,0.702,0.89,1.277
					c0.648-0.383,1.073-0.749,1.277-1.098c0.203-0.347,0.305-0.743,0.305-1.187c0-0.383-0.117-0.674-0.35-0.872
					c-0.234-0.198-0.573-0.297-1.017-0.297C833.49,278.004,833.166,278.127,832.939,278.372z"/>
			</g>
		</g>
		<g>
			<circle fill="#565656" cx="834.782" cy="334.164" r="9.992"/>
			<g>
				<path fill="#FFFFFF" d="M839.755,340.279c-0.54,0-1.014-0.088-1.422-0.262c-0.407-0.174-0.893-0.518-1.457-1.034
					c-0.443,0.408-0.962,0.726-1.555,0.953c-0.593,0.228-1.244,0.342-1.951,0.342c-0.755,0-1.43-0.133-2.023-0.396
					c-0.594-0.263-1.056-0.632-1.386-1.107c-0.33-0.473-0.495-1.016-0.495-1.628c0-0.706,0.213-1.351,0.639-1.933
					c0.425-0.582,1.124-1.107,2.095-1.574c-0.503-0.635-0.852-1.157-1.043-1.564c-0.192-0.408-0.288-0.833-0.288-1.277
					c0-0.467,0.117-0.914,0.351-1.34c0.233-0.425,0.578-0.768,1.033-1.026s1.008-0.386,1.655-0.386c0.887,0,1.607,0.219,2.158,0.657
					c0.551,0.437,0.827,1.069,0.827,1.897c0,0.696-0.174,1.302-0.522,1.817c-0.347,0.515-0.977,1.013-1.888,1.493
					c0.492,0.611,0.857,1.055,1.097,1.331c0.66,0.791,1.121,1.337,1.386,1.636c0.431-0.78,0.647-1.667,0.647-2.662l-0.018-0.414
					l1.421,0.108c0.023,0.731-0.06,1.438-0.252,2.122c-0.192,0.683-0.492,1.295-0.9,1.834c0.432,0.42,0.803,0.699,1.115,0.836
					c0.311,0.138,0.683,0.195,1.115,0.171L839.755,340.279z M831.841,338.336c0.432,0.347,0.959,0.521,1.584,0.521
					c0.958,0,1.804-0.275,2.535-0.826c-0.551-0.587-1.055-1.157-1.51-1.709l-0.269-0.306l-1.134-1.349
					c-0.731,0.444-1.223,0.839-1.474,1.187c-0.252,0.348-0.378,0.738-0.378,1.169C831.194,337.55,831.409,337.989,831.841,338.336z
					 M832.939,329.874c-0.228,0.246-0.342,0.56-0.342,0.944c0,0.301,0.068,0.588,0.207,0.864c0.138,0.276,0.434,0.702,0.89,1.277
					c0.648-0.383,1.073-0.749,1.277-1.098c0.203-0.347,0.305-0.743,0.305-1.187c0-0.383-0.117-0.674-0.35-0.872
					c-0.234-0.198-0.573-0.297-1.017-0.297C833.49,329.505,833.166,329.628,832.939,329.874z"/>
			</g>
		</g>
	</g>
	<g>
		<path fill="#989898" d="M79.333,50.165h-2.913V38.81l0.208-5.41h-0.03l-5.975,16.765h-2.645l-5.975-16.765h-0.03l0.238,5.41
			v11.355h-2.943V30.547h4.726l3.954,11.355l1.367,4.666h0.059l1.397-4.666l3.924-11.355h4.637V50.165z"/>
		<path fill="#989898" d="M98.059,35.303v14.863h-2.824l-0.119-2.408c-1.01,1.803-2.774,2.705-5.291,2.705
			c-1.605,0-2.898-0.441-3.879-1.323c-0.981-0.881-1.471-2.234-1.471-4.057v-9.78h3.18v8.947c0,1.308,0.257,2.235,0.773,2.779
			c0.515,0.545,1.278,0.817,2.289,0.817c1.208,0,2.204-0.381,2.987-1.144c0.783-0.763,1.174-1.888,1.174-3.374v-8.026H98.059z"/>
		<path fill="#989898" d="M106.084,45.826c0,0.733,0.109,1.244,0.327,1.53c0.218,0.288,0.624,0.431,1.219,0.431
			c0.376,0,0.699-0.025,0.966-0.075c0.268-0.049,0.599-0.153,0.995-0.312l-0.357,2.556c-0.674,0.337-1.496,0.506-2.467,0.506
			c-1.328,0-2.304-0.337-2.928-1.011c-0.624-0.673-0.937-1.734-0.937-3.18V28.615h3.181V45.826z"/>
		<path fill="#989898" d="M121.333,49.184c-0.475,0.397-1.055,0.709-1.739,0.936c-0.684,0.228-1.422,0.342-2.214,0.342
			c-1.367,0-2.463-0.342-3.285-1.026c-0.823-0.684-1.244-1.749-1.263-3.195V37.8h-2.824v-2.497h2.824v-3.478l3.18-0.892v4.37h5.202
			V37.8h-5.202v7.907c0,0.713,0.193,1.244,0.58,1.59c0.386,0.347,0.916,0.52,1.59,0.52c0.911,0,1.714-0.317,2.408-0.951
			L121.333,49.184z"/>
		<path fill="#989898" d="M124.335,32.286c-0.376-0.346-0.565-0.837-0.565-1.471c0-0.634,0.188-1.119,0.565-1.457
			c0.376-0.337,0.901-0.505,1.575-0.505c0.673,0,1.194,0.169,1.561,0.505c0.366,0.337,0.55,0.823,0.55,1.457
			c0,0.634-0.184,1.125-0.55,1.471c-0.367,0.347-0.887,0.52-1.561,0.52C125.236,32.806,124.711,32.633,124.335,32.286z
			 M127.486,50.165h-3.181V35.303h3.181V50.165z"/>
		<path fill="#989898" d="M141.878,43.804h-10.136v-2.943h10.136V43.804z"/>
		<path fill="#989898" d="M155.082,49.184c-0.475,0.397-1.055,0.709-1.739,0.936c-0.684,0.228-1.422,0.342-2.214,0.342
			c-1.367,0-2.463-0.342-3.285-1.026c-0.823-0.684-1.244-1.749-1.263-3.195V37.8h-2.824v-2.497h2.824v-3.478l3.18-0.892v4.37h5.202
			V37.8h-5.202v7.907c0,0.713,0.193,1.244,0.58,1.59c0.386,0.347,0.916,0.52,1.59,0.52c0.911,0,1.714-0.317,2.408-0.951
			L155.082,49.184z"/>
		<path fill="#989898" d="M158.084,32.286c-0.376-0.346-0.565-0.837-0.565-1.471c0-0.634,0.188-1.119,0.565-1.457
			c0.376-0.337,0.901-0.505,1.575-0.505c0.673,0,1.194,0.169,1.561,0.505c0.366,0.337,0.55,0.823,0.55,1.457
			c0,0.634-0.184,1.125-0.55,1.471c-0.367,0.347-0.887,0.52-1.561,0.52C158.985,32.806,158.46,32.633,158.084,32.286z
			 M161.235,50.165h-3.181V35.303h3.181V50.165z"/>
		<path fill="#989898" d="M179.367,43.923h-10.879c0.178,1.308,0.644,2.304,1.397,2.987c0.753,0.684,1.724,1.026,2.913,1.026
			c0.971,0,1.779-0.173,2.423-0.52c0.644-0.347,1.085-0.847,1.323-1.501l2.646,1.1c-1.11,2.299-3.24,3.448-6.391,3.448
			c-2.338,0-4.167-0.684-5.484-2.051c-1.318-1.367-1.977-3.259-1.977-5.678c0-2.437,0.634-4.334,1.903-5.692
			c1.268-1.357,3.051-2.036,5.35-2.036c2.18,0,3.874,0.664,5.083,1.992c1.208,1.328,1.813,3.091,1.813,5.291
			C179.486,42.863,179.446,43.408,179.367,43.923z M169.81,38.543c-0.704,0.674-1.144,1.655-1.323,2.943h8.026
			c-0.159-1.248-0.58-2.219-1.263-2.913c-0.684-0.694-1.571-1.04-2.66-1.04C171.44,37.532,170.513,37.869,169.81,38.543z"/>
		<path fill="#989898" d="M192.772,35.303l-0.505,2.913c-0.456-0.257-1.081-0.387-1.873-0.387c-0.635,0-1.234,0.169-1.798,0.506
			c-0.565,0.337-1.031,0.843-1.397,1.516c-0.367,0.674-0.55,1.486-0.55,2.437v7.877h-3.181V35.303h2.705l0.268,2.676
			c0.832-1.982,2.398-2.973,4.696-2.973C191.831,35.006,192.376,35.105,192.772,35.303z"/>
	</g>
	<g>
		<path fill="#989898" d="M728.571,50.768h-2.912V39.413l0.207-5.41h-0.029l-5.975,16.764h-2.645l-5.975-16.764h-0.029l0.237,5.41
			v11.355h-2.942V31.15h4.726l3.953,11.355l1.367,4.666h0.06l1.397-4.666l3.924-11.355h4.637V50.768z"/>
		<path fill="#989898" d="M747.298,35.905v14.862h-2.824l-0.119-2.408c-1.01,1.803-2.774,2.705-5.291,2.705
			c-1.605,0-2.898-0.441-3.879-1.323c-0.98-0.881-1.471-2.234-1.471-4.057v-9.779h3.18v8.947c0,1.308,0.257,2.235,0.773,2.779
			c0.515,0.545,1.278,0.817,2.289,0.817c1.208,0,2.204-0.381,2.987-1.144c0.782-0.763,1.174-1.888,1.174-3.374v-8.026H747.298z"/>
		<path fill="#989898" d="M755.323,46.428c0,0.733,0.109,1.244,0.327,1.53c0.218,0.288,0.625,0.431,1.219,0.431
			c0.376,0,0.699-0.025,0.966-0.075c0.268-0.049,0.6-0.153,0.996-0.312l-0.357,2.556c-0.674,0.337-1.496,0.506-2.467,0.506
			c-1.327,0-2.304-0.337-2.928-1.011c-0.625-0.673-0.936-1.734-0.936-3.18V29.218h3.18V46.428z"/>
		<path fill="#989898" d="M770.571,49.787c-0.475,0.397-1.055,0.709-1.739,0.936c-0.684,0.228-1.422,0.342-2.214,0.342
			c-1.367,0-2.462-0.342-3.284-1.026c-0.822-0.684-1.244-1.749-1.263-3.195v-8.441h-2.824v-2.497h2.824v-3.478l3.18-0.892v4.369
			h5.202v2.497h-5.202v7.906c0,0.713,0.193,1.244,0.579,1.59c0.387,0.347,0.917,0.52,1.591,0.52c0.911,0,1.714-0.317,2.407-0.951
			L770.571,49.787z"/>
		<path fill="#989898" d="M773.573,32.889c-0.377-0.346-0.565-0.837-0.565-1.471c0-0.634,0.188-1.119,0.565-1.457
			c0.376-0.337,0.901-0.505,1.575-0.505s1.194,0.169,1.561,0.505c0.366,0.337,0.55,0.823,0.55,1.457c0,0.634-0.183,1.125-0.55,1.471
			c-0.367,0.347-0.887,0.52-1.561,0.52S773.949,33.236,773.573,32.889z M776.724,50.768h-3.18V35.905h3.18V50.768z"/>
		<path fill="#989898" d="M808.29,37.645c1.169,1.358,1.754,3.245,1.754,5.663c0,2.418-0.585,4.315-1.754,5.692
			c-1.169,1.378-2.774,2.066-4.815,2.066c-1.07,0-2.026-0.238-2.868-0.713c-0.842-0.476-1.491-1.13-1.947-1.962v8.62h-3.18V35.905
			h2.795l0.148,2.765c0.436-0.931,1.094-1.674,1.976-2.23c0.881-0.554,1.907-0.832,3.076-0.832
			C805.516,35.608,807.121,36.288,808.29,37.645z M805.779,47.127c0.723-0.901,1.085-2.165,1.085-3.79
			c0-1.624-0.362-2.893-1.085-3.805c-0.724-0.911-1.729-1.367-3.017-1.367c-1.209,0-2.175,0.406-2.898,1.219
			c-0.724,0.813-1.125,1.942-1.204,3.389v1.129c0.079,1.427,0.48,2.546,1.204,3.359c0.723,0.813,1.689,1.219,2.898,1.219
			C804.05,48.479,805.055,48.028,805.779,47.127z"/>
		<path fill="#989898" d="M817.267,46.428c0,0.733,0.109,1.244,0.327,1.53c0.218,0.288,0.625,0.431,1.219,0.431
			c0.376,0,0.699-0.025,0.966-0.075c0.268-0.049,0.6-0.153,0.996-0.312l-0.357,2.556c-0.674,0.337-1.496,0.506-2.467,0.506
			c-1.328,0-2.304-0.337-2.928-1.011c-0.625-0.673-0.936-1.734-0.936-3.18V29.218h3.18V46.428z"/>
		<path fill="#989898" d="M837.42,48.568l-0.208,2.14c-0.535,0.238-1.149,0.357-1.842,0.357c-0.852,0-1.531-0.169-2.037-0.506
			c-0.505-0.337-0.837-0.901-0.995-1.694c-0.457,0.694-1.13,1.233-2.022,1.62s-1.892,0.58-3.002,0.58
			c-1.447,0-2.616-0.337-3.508-1.011c-0.892-0.673-1.337-1.635-1.337-2.883c0-1.169,0.485-2.155,1.457-2.958
			c0.971-0.803,2.417-1.372,4.339-1.709l3.775-0.654v-0.803c0-0.911-0.267-1.63-0.802-2.155c-0.535-0.525-1.278-0.788-2.23-0.788
			c-1.962,0-3.24,0.892-3.834,2.675l-2.467-1.308c0.357-1.189,1.085-2.13,2.185-2.824c1.1-0.693,2.452-1.04,4.058-1.04
			c1.921,0,3.447,0.446,4.577,1.338c1.13,0.892,1.694,2.199,1.694,3.924v6.718c0,0.376,0.085,0.654,0.253,0.832
			c0.168,0.178,0.45,0.268,0.847,0.268C836.756,48.687,837.123,48.647,837.42,48.568z M830.821,47.884
			c0.813-0.515,1.219-1.199,1.219-2.051V44.05l-3.24,0.654c-1.031,0.198-1.793,0.476-2.289,0.832
			c-0.495,0.357-0.743,0.832-0.743,1.427c0,0.555,0.194,0.976,0.58,1.263c0.386,0.288,0.936,0.431,1.649,0.431
			C829.068,48.657,830.009,48.4,830.821,47.884z"/>
		<path fill="#989898" d="M849.458,49.787c-0.475,0.397-1.055,0.709-1.739,0.936c-0.684,0.228-1.422,0.342-2.214,0.342
			c-1.367,0-2.462-0.342-3.284-1.026s-1.244-1.749-1.263-3.195v-8.441h-2.824v-2.497h2.824v-3.478l3.18-0.892v4.369h5.202v2.497
			h-5.202v7.906c0,0.713,0.193,1.244,0.579,1.59c0.387,0.347,0.917,0.52,1.591,0.52c0.911,0,1.714-0.317,2.407-0.951L849.458,49.787
			z"/>
		<path fill="#989898" d="M856.176,35.905h4.815v2.497h-4.727v12.365h-3.18V38.403h-2.794v-2.497h2.794v-2.14
			c0-1.505,0.455-2.675,1.367-3.507c0.911-0.832,2.189-1.248,3.835-1.248c0.594,0,1.139,0.065,1.635,0.193
			c0.495,0.129,0.881,0.302,1.159,0.52l-0.595,2.318c-0.456-0.297-1.021-0.446-1.694-0.446c-1.744,0-2.615,0.803-2.615,2.408V35.905
			z"/>
		<path fill="#989898" d="M875.497,37.659c1.308,1.367,1.962,3.26,1.962,5.677c0,2.418-0.654,4.31-1.962,5.678
			c-1.308,1.367-3.121,2.051-5.439,2.051c-2.318,0-4.132-0.684-5.44-2.051c-1.308-1.367-1.962-3.259-1.962-5.678
			c0-2.417,0.654-4.31,1.962-5.677c1.308-1.367,3.121-2.051,5.44-2.051C872.376,35.608,874.189,36.292,875.497,37.659z
			 M866.951,39.458c-0.723,0.902-1.085,2.195-1.085,3.879c0,1.685,0.362,2.978,1.085,3.879c0.724,0.902,1.758,1.353,3.107,1.353
			c1.347,0,2.387-0.456,3.121-1.367c0.733-0.911,1.1-2.199,1.1-3.864c0-1.664-0.367-2.952-1.1-3.864
			c-0.734-0.911-1.774-1.367-3.121-1.367C868.709,38.105,867.675,38.556,866.951,39.458z"/>
		<path fill="#989898" d="M890.834,35.905l-0.505,2.913c-0.456-0.257-1.081-0.387-1.873-0.387c-0.634,0-1.233,0.169-1.798,0.506
			s-1.031,0.842-1.397,1.516c-0.367,0.674-0.55,1.486-0.55,2.437v7.877h-3.18V35.905h2.705l0.268,2.676
			c0.832-1.982,2.397-2.973,4.696-2.973C889.892,35.608,890.438,35.708,890.834,35.905z"/>
		<path fill="#989898" d="M914.494,36.218c0.833,0.406,1.496,1.026,1.992,1.858c0.495,0.832,0.743,1.853,0.743,3.062v9.631h-3.18
			v-9.125c0-1.169-0.278-2.031-0.832-2.586c-0.555-0.554-1.298-0.832-2.23-0.832c-1.09,0-2.006,0.397-2.749,1.189
			c-0.743,0.793-1.114,1.883-1.114,3.27v8.085h-3.18v-9.125c0-1.169-0.278-2.031-0.833-2.586c-0.555-0.554-1.298-0.832-2.229-0.832
			c-0.634,0-1.248,0.163-1.843,0.49c-0.595,0.327-1.081,0.837-1.457,1.531c-0.377,0.694-0.565,1.566-0.565,2.616v7.906h-3.18V35.905
			h2.824l0.149,2.467c0.495-0.911,1.169-1.6,2.021-2.066c0.852-0.465,1.783-0.698,2.795-0.698c1.109,0,2.114,0.253,3.017,0.758
			c0.901,0.506,1.57,1.244,2.006,2.215c0.456-0.971,1.155-1.709,2.096-2.215c0.941-0.505,1.947-0.758,3.017-0.758
			C912.75,35.608,913.662,35.812,914.494,36.218z"/>
		<path fill="#989898" d="M791.348,44.659h-10.136v-2.943h10.136V44.659z"/>
	</g>
	<g>
		<g>
			<path fill="#565656" d="M373.379,96.05v91.046h-14.486v-67.319c0-3.127,0.047-5.565,0.138-7.312
				c-3.127,3.035-6.691,5.656-10.691,7.864c-4,2.206-8.07,3.772-12.209,4.689l-2.758-12.828c2.389-0.277,5.493-1.287,9.31-3.035
				c3.815-1.746,7.426-3.815,10.83-6.208c3.402-2.391,5.885-4.691,7.449-6.897H373.379z"/>
		</g>
		<g>
			<path fill="#989898" d="M434.889,144.248c-3.687,2.441-8.021,3.661-13.002,3.661c-4.831,0-9.025-1.042-12.583-3.127
				c-3.559-2.083-6.306-5.083-8.237-8.998c-1.932-3.915-2.898-8.516-2.898-13.804s0.966-9.889,2.898-13.804
				c1.931-3.914,4.678-6.914,8.237-8.999c3.558-2.084,7.727-3.127,12.507-3.127c5.033,0,9.266,1.043,12.698,3.127
				c3.432,2.085,5.911,5.161,7.435,9.228l-7.702,3.432c-1.018-3-2.492-5.198-4.423-6.597c-1.933-1.397-4.45-2.097-7.551-2.097
				c-4.728,0-8.503,1.665-11.325,4.995c-2.822,3.331-4.233,7.945-4.233,13.842c0,5.949,1.347,10.576,4.042,13.88
				c2.694,3.306,6.431,4.958,11.211,4.958c3.253,0,5.986-0.813,8.198-2.441c2.212-1.626,3.8-4.016,4.766-7.168l7.78,2.593
				C441.181,138.326,438.576,141.808,434.889,144.248z"/>
			<path fill="#989898" d="M486.672,99.177c3.584,2.085,6.342,5.085,8.274,8.999c1.932,3.915,2.898,8.516,2.898,13.804
				s-0.966,9.889-2.898,13.804s-4.69,6.915-8.274,8.998c-3.584,2.085-7.792,3.127-12.622,3.127c-4.831,0-9.025-1.042-12.583-3.127
				c-3.559-2.083-6.306-5.083-8.237-8.998c-1.932-3.915-2.898-8.516-2.898-13.804s0.966-9.889,2.898-13.804
				c1.931-3.914,4.678-6.914,8.237-8.999c3.558-2.084,7.753-3.127,12.583-3.127C478.88,96.05,483.088,97.092,486.672,99.177z
				 M462.916,108.099c-2.696,3.306-4.042,7.932-4.042,13.881s1.347,10.576,4.042,13.88c2.694,3.306,6.406,4.958,11.134,4.958
				c4.778,0,8.515-1.652,11.211-4.958c2.695-3.304,4.041-7.931,4.041-13.88s-1.347-10.575-4.041-13.881
				c-2.696-3.304-6.433-4.957-11.211-4.957C469.322,103.143,465.61,104.796,462.916,108.099z"/>
			<path fill="#989898" d="M546.195,103.371c4.372,4.373,6.559,10.576,6.559,18.609c0,8.034-2.187,14.236-6.559,18.608
				c-4.373,4.373-10.524,6.559-18.456,6.559h-17.77V96.813h17.77C535.671,96.813,541.822,98.999,546.195,103.371z M539.941,135.441
				c2.848-3.177,4.271-7.665,4.271-13.461c0-5.797-1.423-10.283-4.271-13.461c-2.848-3.177-6.915-4.766-12.202-4.766h-9.61v36.454
				h9.61C533.026,140.207,537.094,138.618,539.941,135.441z"/>
			<path fill="#989898" d="M602.401,140.13v7.016H564.88V96.813h36.454v7.015h-28.295v14.491h22.117v6.863h-22.117v14.948H602.401z"
				/>
		</g>
		<g>
			<path fill="#989898" d="M416.4,183.148v3.561h-18.232v-25.548h4.142v21.987H416.4z"/>
			<path fill="#989898" d="M435.794,180.012h-10.761l-2.439,6.697h-4.258l9.639-25.548h4.955l9.639,25.548h-4.374L435.794,180.012z
				 M434.555,176.644l-2.942-8.206l-1.161-3.677h-0.116l-1.084,3.6l-3.019,8.284H434.555z"/>
			<path fill="#989898" d="M468.04,186.709h-4.916l-9.871-16.103l-2.477-4.722h-0.039l0.155,4.336v16.49h-3.794v-25.548h4.877
				l9.832,16.064l2.516,4.762h0.039l-0.155-4.336v-16.49h3.832V186.709z"/>
			<path fill="#989898" d="M496.994,173.509v13.2h-3.058l-0.116-3.252c-0.749,1.161-1.781,2.058-3.097,2.69
				c-1.316,0.632-2.89,0.948-4.722,0.948c-2.375,0-4.452-0.528-6.232-1.587c-1.781-1.058-3.162-2.574-4.142-4.548
				c-0.981-1.974-1.471-4.316-1.471-7.026c0-2.684,0.503-5.013,1.509-6.987c1.006-1.974,2.425-3.497,4.259-4.568
				c1.831-1.071,3.961-1.607,6.387-1.607c2.632,0,4.8,0.491,6.504,1.471c1.703,0.981,3.044,2.504,4.025,4.568l-3.794,1.819
				c-0.49-1.393-1.315-2.451-2.477-3.174c-1.161-0.723-2.554-1.084-4.18-1.084c-2.426,0-4.349,0.839-5.768,2.516
				c-1.42,1.678-2.129,4.026-2.129,7.045c0,3.071,0.677,5.438,2.033,7.103c1.354,1.664,3.335,2.497,5.942,2.497
				c2.038,0,3.69-0.503,4.955-1.509c1.264-1.007,1.897-2.464,1.897-4.374v-0.736h-7.82v-3.406H496.994z"/>
			<path fill="#989898" d="M524.169,176.915c0,3.355-0.891,5.891-2.671,7.606c-1.781,1.717-4.374,2.574-7.782,2.574
				c-3.406,0-5.999-0.857-7.781-2.574c-1.78-1.716-2.671-4.252-2.671-7.606v-15.755h4.181v15.252c0,2.426,0.509,4.213,1.529,5.361
				c1.019,1.148,2.599,1.722,4.742,1.722c2.142,0,3.722-0.574,4.743-1.722c1.019-1.148,1.529-2.935,1.529-5.361v-15.252h4.181
				V176.915z"/>
			<path fill="#989898" d="M544.918,180.012h-10.762l-2.438,6.697h-4.259l9.639-25.548h4.955l9.639,25.548h-4.374L544.918,180.012z
				 M543.68,176.644l-2.942-8.206l-1.161-3.677h-0.116l-1.085,3.6l-3.019,8.284H543.68z"/>
			<path fill="#989898" d="M576.737,173.509v13.2h-3.058l-0.116-3.252c-0.75,1.161-1.781,2.058-3.097,2.69
				c-1.316,0.632-2.89,0.948-4.722,0.948c-2.375,0-4.452-0.528-6.232-1.587c-1.781-1.058-3.162-2.574-4.143-4.548
				c-0.981-1.974-1.47-4.316-1.47-7.026c0-2.684,0.503-5.013,1.509-6.987c1.006-1.974,2.425-3.497,4.258-4.568
				c1.832-1.071,3.962-1.607,6.388-1.607c2.632,0,4.8,0.491,6.503,1.471c1.704,0.981,3.045,2.504,4.026,4.568l-3.794,1.819
				c-0.49-1.393-1.316-2.451-2.477-3.174c-1.161-0.723-2.555-1.084-4.18-1.084c-2.426,0-4.349,0.839-5.768,2.516
				c-1.42,1.678-2.129,4.026-2.129,7.045c0,3.071,0.677,5.438,2.033,7.103c1.354,1.664,3.335,2.497,5.942,2.497
				c2.038,0,3.69-0.503,4.955-1.509c1.264-1.007,1.896-2.464,1.896-4.374v-0.736h-7.819v-3.406H576.737z"/>
			<path fill="#989898" d="M602.401,183.148v3.561h-19.045v-25.548h18.503v3.561h-14.362v7.355h11.226v3.484h-11.226v7.587H602.401z
				"/>
		</g>
	</g>
	<g>
		<rect x="332.42" y="420.696" fill="#565656" width="289.548" height="59.849"/>
		<rect x="332.42" y="352.916" fill="#1E4886" width="289.548" height="68.792"/>
		<rect x="332.42" y="295.061" fill="#565656" width="289.548" height="63.173"/>
		<rect x="332.42" y="235.924" fill="#1E4886" width="289.548" height="59.831"/>
		<rect x="313.808" y="235.924" fill="#888888" width="37.225" height="244.621"/>
		<g>
			<path fill="#989898" d="M329.761,267.831h5.318c2.941,0,5.318-2.377,5.318-5.318s-2.377-5.318-5.318-5.318h-5.318
				c-2.941,0-5.318,2.377-5.318,5.318S326.82,267.831,329.761,267.831z"/>
			<path fill="#989898" d="M335.079,278.466h-5.318c-2.941,0-5.318,2.377-5.318,5.318s2.377,5.318,5.318,5.318h5.318
				c2.941,0,5.318-2.377,5.318-5.318S338.02,278.466,335.079,278.466z"/>
			<path fill="#989898" d="M335.079,299.738h-5.318c-2.941,0-5.318,2.377-5.318,5.318s2.377,5.318,5.318,5.318h5.318
				c2.941,0,5.318-2.377,5.318-5.318S338.02,299.738,335.079,299.738z"/>
			<path fill="#989898" d="M335.079,321.009h-5.318c-2.941,0-5.318,2.377-5.318,5.318s2.377,5.318,5.318,5.318h5.318
				c2.941,0,5.318-2.377,5.318-5.318S338.02,321.009,335.079,321.009z"/>
			<path fill="#989898" d="M335.079,342.28h-5.318c-2.941,0-5.318,2.377-5.318,5.318c0,2.941,2.377,5.318,5.318,5.318h5.318
				c2.941,0,5.318-2.377,5.318-5.318C340.397,344.658,338.02,342.28,335.079,342.28z"/>
			<path fill="#989898" d="M335.079,363.552h-5.318c-2.941,0-5.318,2.377-5.318,5.318s2.377,5.318,5.318,5.318h5.318
				c2.941,0,5.318-2.377,5.318-5.318S338.02,363.552,335.079,363.552z"/>
			<path fill="#989898" d="M335.079,384.823h-5.318c-2.941,0-5.318,2.377-5.318,5.318c0,2.941,2.377,5.318,5.318,5.318h5.318
				c2.941,0,5.318-2.377,5.318-5.318C340.397,387.2,338.02,384.823,335.079,384.823z"/>
			<path fill="#989898" d="M335.079,406.095h-5.318c-2.941,0-5.318,2.377-5.318,5.318c0,2.941,2.377,5.318,5.318,5.318h5.318
				c2.941,0,5.318-2.377,5.318-5.318C340.397,408.472,338.02,406.095,335.079,406.095z"/>
			<path fill="#989898" d="M335.079,427.366h-5.318c-2.941,0-5.318,2.377-5.318,5.318s2.377,5.318,5.318,5.318h5.318
				c2.941,0,5.318-2.377,5.318-5.318S338.02,427.366,335.079,427.366z"/>
			<path fill="#989898" d="M335.079,448.637h-5.318c-2.941,0-5.318,2.377-5.318,5.318c0,2.941,2.377,5.318,5.318,5.318h5.318
				c2.941,0,5.318-2.377,5.318-5.318C340.397,451.014,338.02,448.637,335.079,448.637z"/>
		</g>
		<path fill="#73C6ED" d="M446.754,267.831h-69.132c-2.941,0-5.318-2.377-5.318-5.318s2.377-5.318,5.318-5.318h69.132
			c2.941,0,5.318,2.377,5.318,5.318S449.694,267.831,446.754,267.831z"/>
		<path fill="#FFFFFF" d="M521.204,267.831h-53.178c-2.941,0-5.318-2.377-5.318-5.318s2.377-5.318,5.318-5.318h53.178
			c2.941,0,5.318,2.377,5.318,5.318S524.144,267.831,521.204,267.831z"/>
		<path fill="#989898" d="M553.111,267.831h-10.636c-2.941,0-5.318-2.377-5.318-5.318s2.377-5.318,5.318-5.318h10.636
			c2.941,0,5.318,2.377,5.318,5.318S556.051,267.831,553.111,267.831z"/>
		<path fill="#FFFFFF" d="M579.7,286.884h-79.768c-2.941,0-5.318-2.377-5.318-5.318s2.377-5.318,5.318-5.318H579.7
			c2.941,0,5.318,2.377,5.318,5.318S582.641,286.884,579.7,286.884z"/>
		<path fill="#FFFFFF" d="M478.661,286.884h-74.45c-2.941,0-5.318-2.377-5.318-5.318s2.377-5.318,5.318-5.318h74.45
			c2.941,0,5.318,2.377,5.318,5.318S481.602,286.884,478.661,286.884z"/>
		<path fill="#989898" d="M382.94,286.884h-5.318c-2.941,0-5.318-2.377-5.318-5.318s2.377-5.318,5.318-5.318h5.318
			c2.941,0,5.318,2.377,5.318,5.318S385.88,286.884,382.94,286.884z"/>
		<path fill="#D4DF67" d="M425.482,312.591h-47.861c-2.941,0-5.318-2.377-5.318-5.318s2.377-5.318,5.318-5.318h47.861
			c2.941,0,5.318,2.377,5.318,5.318S428.423,312.591,425.482,312.591z"/>
		<path fill="#989898" d="M457.389,312.591h-10.636c-2.941,0-5.318-2.377-5.318-5.318s2.377-5.318,5.318-5.318h10.636
			c2.941,0,5.318,2.377,5.318,5.318S460.33,312.591,457.389,312.591z"/>
		<path fill="#FFFFFF" d="M553.111,312.591h-74.45c-2.941,0-5.318-2.377-5.318-5.318s2.377-5.318,5.318-5.318h74.45
			c2.941,0,5.318,2.377,5.318,5.318S556.051,312.591,553.111,312.591z"/>
		<path fill="#FFFFFF" d="M446.754,331.645h-69.132c-2.941,0-5.318-2.377-5.318-5.318s2.377-5.318,5.318-5.318h69.132
			c2.941,0,5.318,2.377,5.318,5.318S449.694,331.645,446.754,331.645z"/>
		<path fill="#FFFFFF" d="M521.204,331.645h-53.178c-2.941,0-5.318-2.377-5.318-5.318s2.377-5.318,5.318-5.318h53.178
			c2.941,0,5.318,2.377,5.318,5.318S524.144,331.645,521.204,331.645z"/>
		<path fill="#989898" d="M542.475,350.698h-42.543c-2.941,0-5.318-2.377-5.318-5.318s2.377-5.318,5.318-5.318h42.543
			c2.941,0,5.318,2.377,5.318,5.318S545.416,350.698,542.475,350.698z"/>
		<path fill="#FFFFFF" d="M478.661,350.698h-74.45c-2.941,0-5.318-2.377-5.318-5.318s2.377-5.318,5.318-5.318h74.45
			c2.941,0,5.318,2.377,5.318,5.318S481.602,350.698,478.661,350.698z"/>
		<path fill="#989898" d="M382.94,350.698h-5.318c-2.941,0-5.318-2.377-5.318-5.318s2.377-5.318,5.318-5.318h5.318
			c2.941,0,5.318,2.377,5.318,5.318S385.88,350.698,382.94,350.698z"/>
		<path fill="#73C6ED" d="M425.482,376.405h-47.861c-2.941,0-5.318-2.377-5.318-5.318c0-2.941,2.377-5.318,5.318-5.318h47.861
			c2.941,0,5.318,2.377,5.318,5.318C430.8,374.028,428.423,376.405,425.482,376.405z"/>
		<path fill="#989898" d="M457.389,376.405h-10.636c-2.941,0-5.318-2.377-5.318-5.318c0-2.941,2.377-5.318,5.318-5.318h10.636
			c2.941,0,5.318,2.377,5.318,5.318C462.707,374.028,460.33,376.405,457.389,376.405z"/>
		<path fill="#FFFFFF" d="M558.428,376.405h-79.768c-2.941,0-5.318-2.377-5.318-5.318c0-2.941,2.377-5.318,5.318-5.318h79.768
			c2.941,0,5.318,2.377,5.318,5.318C563.746,374.028,561.369,376.405,558.428,376.405z"/>
		<path fill="#FFFFFF" d="M446.754,395.459h-69.132c-2.941,0-5.318-2.377-5.318-5.318c0-2.941,2.377-5.318,5.318-5.318h69.132
			c2.941,0,5.318,2.377,5.318,5.318C452.072,393.082,449.694,395.459,446.754,395.459z"/>
		<path fill="#FFFFFF" d="M521.204,395.459h-53.178c-2.941,0-5.318-2.377-5.318-5.318c0-2.941,2.377-5.318,5.318-5.318h53.178
			c2.941,0,5.318,2.377,5.318,5.318C526.521,393.082,524.144,395.459,521.204,395.459z"/>
		<path fill="#FFFFFF" d="M579.7,395.459h-37.225c-2.941,0-5.318-2.377-5.318-5.318c0-2.941,2.377-5.318,5.318-5.318H579.7
			c2.941,0,5.318,2.377,5.318,5.318C585.018,393.082,582.641,395.459,579.7,395.459z"/>
		<path fill="#FFFFFF" d="M521.204,414.512h-21.271c-2.941,0-5.318-2.377-5.318-5.318s2.377-5.318,5.318-5.318h21.271
			c2.941,0,5.318,2.377,5.318,5.318S524.144,414.512,521.204,414.512z"/>
		<path fill="#FFFFFF" d="M478.661,414.512h-74.45c-2.941,0-5.318-2.377-5.318-5.318s2.377-5.318,5.318-5.318h74.45
			c2.941,0,5.318,2.377,5.318,5.318S481.602,414.512,478.661,414.512z"/>
		<path fill="#989898" d="M382.94,414.512h-5.318c-2.941,0-5.318-2.377-5.318-5.318s2.377-5.318,5.318-5.318h5.318
			c2.941,0,5.318,2.377,5.318,5.318S385.88,414.512,382.94,414.512z"/>
		<path fill="#D4DF67" d="M425.482,438.002h-47.861c-2.941,0-5.318-2.377-5.318-5.318s2.377-5.318,5.318-5.318h47.861
			c2.941,0,5.318,2.377,5.318,5.318S428.423,438.002,425.482,438.002z"/>
		<path fill="#989898" d="M457.389,438.002h-10.636c-2.941,0-5.318-2.377-5.318-5.318s2.377-5.318,5.318-5.318h10.636
			c2.941,0,5.318,2.377,5.318,5.318S460.33,438.002,457.389,438.002z"/>
		<path fill="#FFFFFF" d="M515.886,438.002h-37.225c-2.941,0-5.318-2.377-5.318-5.318s2.377-5.318,5.318-5.318h37.225
			c2.941,0,5.318,2.377,5.318,5.318S518.826,438.002,515.886,438.002z"/>
		<path fill="#989898" d="M542.475,438.002h-5.318c-2.941,0-5.318-2.377-5.318-5.318s2.377-5.318,5.318-5.318h5.318
			c2.941,0,5.318,2.377,5.318,5.318S545.416,438.002,542.475,438.002z"/>
	</g>
	<g>
		<g>
			<g>
				
					<circle id="SVGID_4_" fill="#73C6ED" stroke="#FFFFFF" stroke-width="4" stroke-miterlimit="10" cx="79.823" cy="207.75" r="74.938"/>
				<g>
					<g>
						<path fill="#989898" d="M110.979,176.334H48.665c-2.444,0-4.427-1.983-4.427-4.427v-14.46c0-2.444,1.983-4.427,4.427-4.427
							h62.314c2.446,0,4.428,1.983,4.428,4.427v14.458C115.407,174.351,113.424,176.334,110.979,176.334z"/>
						<path fill="#888888" d="M110.979,199.648H48.665c-2.444,0-4.427-1.983-4.427-4.427v-14.46c0-2.444,1.983-4.427,4.427-4.427
							h62.314c2.446,0,4.427,1.983,4.427,4.427v14.458C115.407,197.665,113.424,199.648,110.979,199.648z"/>
						<path fill="#989898" d="M110.979,222.962H48.665c-2.444,0-4.427-1.983-4.427-4.427v-14.46c0-2.444,1.983-4.427,4.427-4.427
							h62.314c2.446,0,4.427,1.983,4.427,4.427v14.458C115.407,220.979,113.424,222.962,110.979,222.962z"/>
						<circle fill="#565656" cx="55.894" cy="164.677" r="4.295"/>
						<circle fill="#565656" cx="104.363" cy="162.836" r="1.227"/>
						<circle fill="#565656" cx="99.455" cy="162.836" r="1.227"/>
						<circle fill="#565656" cx="106.817" cy="166.518" r="1.227"/>
						<circle fill="#565656" cx="101.909" cy="166.518" r="1.227"/>
						<circle fill="#565656" cx="94.547" cy="162.836" r="1.227"/>
						<circle fill="#565656" cx="97.001" cy="166.518" r="1.227"/>
						<circle fill="#565656" cx="89.638" cy="162.836" r="1.227"/>
						<circle fill="#565656" cx="92.092" cy="166.518" r="1.227"/>
						<circle fill="#659846" cx="84.73" cy="162.836" r="1.227"/>
						<circle fill="#565656" cx="87.184" cy="166.518" r="1.227"/>
						<circle fill="#565656" cx="55.894" cy="187.991" r="4.295"/>
						<circle fill="#565656" cx="104.363" cy="186.15" r="1.227"/>
						<circle fill="#565656" cx="99.455" cy="186.15" r="1.227"/>
						<circle fill="#565656" cx="106.817" cy="189.832" r="1.227"/>
						<circle fill="#565656" cx="101.909" cy="189.832" r="1.227"/>
						<circle fill="#565656" cx="94.547" cy="186.15" r="1.227"/>
						<circle fill="#565656" cx="97.001" cy="189.832" r="1.227"/>
						<circle fill="#565656" cx="89.638" cy="186.15" r="1.227"/>
						<circle fill="#565656" cx="92.092" cy="189.832" r="1.227"/>
						<circle fill="#659846" cx="84.73" cy="186.15" r="1.227"/>
						<circle fill="#565656" cx="87.184" cy="189.832" r="1.227"/>
						<circle fill="#565656" cx="55.894" cy="211.305" r="4.295"/>
						<circle fill="#565656" cx="104.363" cy="209.464" r="1.227"/>
						<circle fill="#565656" cx="99.455" cy="209.464" r="1.227"/>
						<circle fill="#565656" cx="106.817" cy="213.146" r="1.227"/>
						<circle fill="#565656" cx="101.909" cy="213.146" r="1.227"/>
						<circle fill="#565656" cx="94.547" cy="209.464" r="1.227"/>
						<circle fill="#565656" cx="97.001" cy="213.146" r="1.227"/>
						<circle fill="#565656" cx="89.638" cy="209.464" r="1.227"/>
						<circle fill="#565656" cx="92.092" cy="213.146" r="1.227"/>
						<circle fill="#DE4B69" cx="84.73" cy="209.464" r="1.227"/>
						<circle fill="#565656" cx="87.184" cy="213.146" r="1.227"/>
					</g>
				</g>
				<text transform="matrix(1 0 0 1 51.5994 244.104)" fill="#FFFFFF" font-family="'WorkSans-Medium'" font-size="17.9851">Server</text>
			</g>
		</g>
		<g>
			<g>
				
					<circle id="SVGID_1_" fill="#D4DF67" stroke="#FFFFFF" stroke-width="4" stroke-miterlimit="10" cx="172.218" cy="309.955" r="74.938"/>
				<text transform="matrix(1 0 0 1 146.2473 268.9868)" fill="#FFFFFF" font-family="'WorkSans-Medium'" font-size="17.9851">Client</text>
				<g>
					<path fill="#E1B99A" d="M169.14,307.89h1.453h4.409h1.453l0.593,6.166l1.052,0.845l2.22,1.413l-7.523,17.77l-7.523-17.77
						l2.22-1.413l1.053-0.844L169.14,307.89L169.14,307.89z"/>
					<path fill="#565656" d="M166.83,315.323l-10.725,3.423c0,0-1.043,0.543-1.594,2.12c-3.195,3.423-13.428,14.609-13.428,17.449
						c0,3.365,8.734,11.471,8.734,11.471h4.146v2.905h18.834h18.834v-2.905h4.146c0,0,8.734-8.106,8.734-11.471
						c0-2.841-10.234-14.028-13.428-17.45c-0.551-1.575-1.594-2.118-1.594-2.118l-10.652-3.376l-0.904,2.651l-5.137-0.249
						l-5.062,0.246L166.83,315.323L166.83,315.323z M153.964,334.934L153.964,334.934l1.329,5.302l-0.235,5.602l-1.094-1.252
						l-3.817-5.453L153.964,334.934L153.964,334.934z M191.632,344.586L191.632,344.586l-1.094,1.185l-0.236-6.507l1.329-4.33
						l3.818,4.2L191.632,344.586z"/>
					<path fill="#DEDEDD" d="M166.726,315.357l-1.443,0.46l7.514,18.266l7.581-18.225l-1.54-0.488l-3.772,2.331h-4.523
						L166.726,315.357L166.726,315.357z"/>
					<path fill="#888888" d="M166.83,315.323l-2.314,0.738l-0.444,5.87c0,0,0.122,0.482,0.49,0.439l2.088,0.785
						c0,0,0.137,0.137,0.014,0.31l-1.787,1.224l6.173,11.635c0.578,0.033,1.16,0.05,1.746,0.05c0.587,0,1.169-0.017,1.747-0.05
						l6.173-11.635l-1.787-1.224c-0.122-0.173,0.014-0.31,0.014-0.31l2.088-0.785c0.368,0.043,0.49-0.439,0.49-0.439l-0.443-5.851
						l-2.242-0.711l-6.04,17.715L166.83,315.323L166.83,315.323z"/>
					<path fill="#EBC19C" d="M181.318,295.352c0,0.573,0.209,1.134,0.194,1.684c1.96-0.364,1.014,5.459-0.095,6.26
						c-0.088,0.064-0.305-0.078-0.488-0.195c-0.385,2.142-3.668,7.864-5.756,10.273c-0.58,0.669-4.125,0.658-4.699,0.026
						c-2.138-2.354-5.418-8.145-5.804-10.299c-0.183,0.117-0.4,0.259-0.488,0.195c-1.109-0.801-2.056-6.624-0.095-6.26
						c-0.015-0.55,0.193-1.111,0.193-1.684c0.109-4.521,4.205-6.779,8.52-6.798C177.112,288.573,181.209,290.831,181.318,295.352
						L181.318,295.352z"/>
					<path fill="#565656" d="M178.691,289.556c0.618-0.072,2.851,0.612,3.119,2.975c0.268,2.363,0.14,4.54,0.14,4.54
						s-1.308,0.331-1.473,1.671c-0.164,1.341-0.047,1.341-0.047,1.341l-0.474-0.106l-0.338-2.299
						c-1.957-1.226,0.015-3.043-1.943-3.469c-5.287,3.768-9.952,3.124-12.056,1.351c0,0,0.491,1.854,0.112,2.515
						c-0.379,0.661-0.153,1.703-0.153,1.703l-0.492-0.024c0,0,0.089-2.73-1.003-2.719
						C159.937,290.187,173.068,281.68,178.691,289.556L178.691,289.556z"/>
					<g>
						<path fill="#FFFFFF" d="M168.497,313.176c0.154,0.011-1.79,2.187-1.79,2.187l1.655,5.624l4.437-3.286
							C170.357,316.513,168.901,314.973,168.497,313.176L168.497,313.176z"/>
						<path fill="#FFFFFF" d="M177.099,313.176c-0.153,0.011,1.79,2.187,1.79,2.187l-1.655,5.624l-4.436-3.286
							C175.238,316.513,176.695,314.973,177.099,313.176L177.099,313.176z"/>
					</g>
					<path fill="#EDF0F1" d="M153.581,346.516c2.501,0,4.529,1.259,4.529,2.811c0,1.552-2.027,2.811-4.529,2.811
						c-2.501,0-4.529-1.259-4.529-2.811C149.053,347.774,151.08,346.516,153.581,346.516z M153.581,347.258L153.581,347.258
						c-1.947,0-3.524,0.927-3.524,2.069c0,1.142,1.578,2.069,3.524,2.069c1.947,0,3.524-0.927,3.524-2.069
						C157.106,348.185,155.528,347.258,153.581,347.258z"/>
					<path fill="#387CB9" d="M153.581,351.395c1.941,0,3.524-0.929,3.524-2.069c0-1.139-1.583-2.069-3.524-2.069
						s-3.524,0.929-3.524,2.069C150.057,350.466,151.64,351.395,153.581,351.395z"/>
					<path fill="#EBC19C" d="M152.147,350.508v2.265c0,0.281-0.229,0.511-0.511,0.511h-0.901c-0.281,0-0.511-0.23-0.511-0.511
						v-3.506c0-0.054,0.008-0.105,0.024-0.154v-0.772c0-0.656,0.537-1.192,1.193-1.192h7.374c0.656,0,1.192,0.536,1.192,1.192v0.771
						c0.016,0.049,0.024,0.101,0.024,0.155v3.506c0,0.281-0.23,0.511-0.511,0.511h-0.901c-0.281,0-0.511-0.23-0.511-0.511v-2.265
						h-0.706v2.265c0,0.281-0.229,0.511-0.511,0.511h-0.901c-0.281,0-0.511-0.23-0.511-0.511v-2.265h-0.706v2.265
						c0,0.281-0.23,0.511-0.511,0.511h-0.901c-0.282,0-0.511-0.23-0.511-0.511v-2.265L152.147,350.508L152.147,350.508z"/>
					<path fill="#EDF0F1" d="M192.016,346.516c-2.501,0-4.529,1.259-4.529,2.811c0,1.552,2.027,2.811,4.529,2.811
						c2.501,0,4.529-1.259,4.529-2.811C196.545,347.774,194.517,346.516,192.016,346.516z M192.016,347.258L192.016,347.258
						c1.947,0,3.524,0.927,3.524,2.069c0,1.142-1.578,2.069-3.524,2.069c-1.947,0-3.524-0.927-3.524-2.069
						C188.491,348.185,190.069,347.258,192.016,347.258z"/>
					<path fill="#333333" d="M192.016,351.395c1.941,0,3.524-0.929,3.524-2.069c0-1.139-1.583-2.069-3.524-2.069
						c-1.941,0-3.524,0.929-3.524,2.069C188.492,350.466,190.075,351.395,192.016,351.395z"/>
					<path fill="#EBC19C" d="M193.45,350.508v2.265c0,0.281,0.229,0.511,0.511,0.511h0.901c0.281,0,0.511-0.23,0.511-0.511v-3.506
						c0-0.054-0.008-0.105-0.024-0.154v-0.772c0-0.656-0.536-1.192-1.192-1.192h-7.375c-0.656,0-1.192,0.536-1.192,1.192v0.771
						c-0.016,0.049-0.024,0.101-0.024,0.155v3.506c0,0.281,0.229,0.511,0.511,0.511h0.901c0.281,0,0.511-0.23,0.511-0.511v-2.265
						h0.706v2.265c0,0.281,0.23,0.511,0.511,0.511h0.901c0.282,0,0.511-0.23,0.511-0.511v-2.265h0.706v2.265
						c0,0.281,0.23,0.511,0.511,0.511h0.901c0.281,0,0.51-0.23,0.51-0.511v-2.265L193.45,350.508L193.45,350.508z"/>
					<path fill="#DEDEDD" d="M152.597,324.668H193c1.29,0,2.346,1.056,2.346,2.346v22.331c0,1.29-1.056,2.346-2.346,2.346h-40.403
						c-1.29,0-2.346-1.056-2.346-2.346v-22.331C150.251,325.723,151.306,324.668,152.597,324.668z"/>
					<path fill="#DEDEDD" d="M151.141,352.841h43.315c0.49,0,0.89,0.401,0.89,0.891v1.717c0,0.49-0.401,0.891-0.89,0.891h-43.315
						c-0.49,0-0.89-0.4-0.89-0.891v-1.717C150.25,353.241,150.651,352.841,151.141,352.841z"/>
					<g>
						<path fill="#C2C1C1" d="M156.874,351.153h3.829v2.61h-3.829V351.153z M184.894,351.153L184.894,351.153h3.829v2.61h-3.829
							V351.153z"/>
						<path fill="#565656" d="M168.551,334.798h8.495c0.114,0,0.207,0.093,0.207,0.207v1.923c0,0.114-0.093,0.207-0.207,0.207
							h-8.495c-0.114,0-0.207-0.093-0.207-0.207v-1.923C168.344,334.891,168.437,334.798,168.551,334.798z"/>
					</g>
				</g>
			</g>
		</g>
		<g>
			<circle fill="#565656" cx="122.733" cy="256.997" r="9.992"/>
			<g>
				<path fill="#FFFFFF" d="M127.706,263.112c-0.54,0-1.014-0.088-1.422-0.262c-0.407-0.174-0.893-0.518-1.457-1.034
					c-0.443,0.408-0.962,0.726-1.555,0.953c-0.593,0.228-1.244,0.342-1.952,0.342c-0.755,0-1.429-0.133-2.023-0.396
					c-0.594-0.263-1.056-0.632-1.386-1.107c-0.33-0.473-0.495-1.016-0.495-1.628c0-0.706,0.213-1.351,0.639-1.933
					c0.425-0.582,1.124-1.107,2.095-1.574c-0.503-0.635-0.852-1.157-1.043-1.564c-0.192-0.408-0.288-0.833-0.288-1.277
					c0-0.467,0.117-0.914,0.351-1.34c0.233-0.425,0.578-0.768,1.033-1.026c0.456-0.258,1.008-0.386,1.655-0.386
					c0.887,0,1.607,0.219,2.158,0.657c0.551,0.437,0.827,1.069,0.827,1.897c0,0.696-0.174,1.302-0.522,1.817
					c-0.347,0.515-0.977,1.013-1.888,1.493c0.492,0.611,0.857,1.055,1.097,1.331c0.66,0.791,1.121,1.337,1.386,1.636
					c0.431-0.78,0.647-1.667,0.647-2.662l-0.018-0.414l1.421,0.108c0.023,0.731-0.06,1.438-0.252,2.122
					c-0.192,0.683-0.492,1.295-0.9,1.834c0.432,0.42,0.803,0.699,1.115,0.836c0.311,0.138,0.683,0.195,1.115,0.171L127.706,263.112z
					 M119.792,261.169c0.432,0.347,0.959,0.521,1.584,0.521c0.958,0,1.804-0.275,2.535-0.826c-0.551-0.587-1.055-1.157-1.51-1.709
					l-0.269-0.306l-1.134-1.348c-0.731,0.444-1.223,0.839-1.474,1.187c-0.252,0.348-0.378,0.738-0.378,1.169
					C119.145,260.384,119.36,260.822,119.792,261.169z M120.889,252.707c-0.228,0.246-0.342,0.56-0.342,0.944
					c0,0.301,0.068,0.588,0.207,0.864c0.138,0.276,0.434,0.702,0.89,1.277c0.648-0.383,1.073-0.749,1.277-1.098
					c0.203-0.347,0.305-0.743,0.305-1.187c0-0.383-0.117-0.674-0.35-0.872c-0.234-0.198-0.573-0.297-1.017-0.297
					C121.441,252.339,121.117,252.462,120.889,252.707z"/>
			</g>
		</g>
	</g>
</g>
</svg>
