<?xml version="1.0" encoding="utf-8"?>
<!-- Generator: Adobe Illustrator 17.0.0, SVG Export Plug-In . SVG Version: 6.00 Build 0)  -->
<!DOCTYPE svg PUBLIC "-//W3C//DTD SVG 1.1//EN" "http://www.w3.org/Graphics/SVG/1.1/DTD/svg11.dtd">
<svg version="1.1" id="Calque_1" xmlns="http://www.w3.org/2000/svg" xmlns:xlink="http://www.w3.org/1999/xlink" x="0px" y="0px"
	 width="938px" height="483.449px" viewBox="0 0 938 483.449" enable-background="new 0 0 938 483.449" xml:space="preserve">
<g>
	<path id="SVGID_5_" fill="none" stroke="#DEDEDD" stroke-width="4" stroke-miterlimit="10" d="M163.14,307.307
		C163.14,139,299.58,2.56,467.888,2.56S772.635,139,772.635,307.307"/>
	<g>
		<g>
			<circle fill="#989898" stroke="#FFFFFF" stroke-width="4" stroke-miterlimit="10" cx="861.059" cy="405.606" r="74.938"/>
			<text transform="matrix(1 0 0 1 846.1394 454.565)" fill="#FFFFFF" font-family="'WorkSans-Medium'" font-size="17.9851">iOS</text>
			<g>
				<path fill="#DEDEDD" d="M876.211,426.581h-30.377c-2.267,0-4.106-1.839-4.106-4.106v-61.73c0-2.267,1.839-4.106,4.106-4.106
					h30.375c2.268,0,4.107,1.839,4.107,4.106v61.729C880.317,424.742,878.478,426.581,876.211,426.581z"/>
				<rect x="841.801" y="363.399" fill="#FFFFFF" width="38.589" height="48.236"/>
				<circle fill="#888888" cx="861.023" cy="419.346" r="3.618"/>
				<path fill="#888888" d="M861.023,361.463h-4.824c-0.667,0-1.206-0.539-1.206-1.206s0.539-1.206,1.206-1.206h4.824
					c0.667,0,1.206,0.539,1.206,1.206S861.689,361.463,861.023,361.463z"/>
				<path fill="#888888" d="M865.846,361.463h-1.206c-0.667,0-1.206-0.539-1.206-1.206s0.539-1.206,1.206-1.206h1.206
					c0.667,0,1.206,0.539,1.206,1.206S866.513,361.463,865.846,361.463z"/>
				<g id="XMLID_7_">
					<path id="XMLID_9_" fill="#565656" d="M853.518,384.78c-1.748,3.033-0.637,7.637,1.296,10.428
						c0.965,1.395,1.942,2.648,3.28,2.648c0.025,0,0.051,0,0.076-0.001c0.629-0.025,1.083-0.219,1.522-0.406
						c0.493-0.21,1.003-0.427,1.803-0.427c0.761,0,1.247,0.21,1.716,0.413c0.463,0.2,0.94,0.407,1.644,0.394
						c1.507-0.028,2.433-1.38,3.249-2.572c0.852-1.245,1.279-2.454,1.424-2.916l0.006-0.018c0.027-0.082-0.011-0.172-0.09-0.208
						c-0.002-0.001-0.01-0.004-0.012-0.005c-0.265-0.109-2.594-1.141-2.618-3.956c-0.023-2.287,1.747-3.498,2.101-3.718l0.017-0.01
						c0.038-0.025,0.065-0.064,0.074-0.109c0.009-0.045,0-0.091-0.026-0.129c-1.221-1.787-3.093-2.056-3.847-2.089
						c-0.109-0.011-0.222-0.016-0.336-0.016c-0.885,0-1.733,0.334-2.414,0.603c-0.47,0.185-0.876,0.346-1.156,0.346
						c-0.315,0-0.723-0.162-1.196-0.35c-0.632-0.251-1.349-0.535-2.108-0.535c-0.018,0-0.036,0-0.053,0.001
						C856.105,382.171,854.438,383.181,853.518,384.78z"/>
					<path id="XMLID_8_" fill="#565656" d="M865.135,377.179c-1.069,0.044-2.351,0.701-3.117,1.599
						c-0.651,0.754-1.287,2.012-1.12,3.28c0.011,0.079,0.075,0.141,0.155,0.147c0.072,0.006,0.146,0.008,0.219,0.009
						c1.045,0,2.172-0.578,2.942-1.509c0.81-0.983,1.22-2.244,1.096-3.374C865.301,377.241,865.223,377.176,865.135,377.179z"/>
				</g>
			</g>
		</g>
		<g>
			<circle fill="#DEDEDD" stroke="#FFFFFF" stroke-width="4" stroke-miterlimit="10" cx="765.001" cy="309.585" r="74.938"/>
			<g>
				<path fill="#989898" d="M780.189,330.56h-30.377c-2.267,0-4.106-1.839-4.106-4.106v-61.73c0-2.267,1.839-4.106,4.106-4.106
					h30.375c2.268,0,4.107,1.839,4.107,4.106v61.729C784.295,328.721,782.456,330.56,780.189,330.56z"/>
				<rect x="745.707" y="269.065" fill="#D4DF67" width="38.589" height="54.579"/>
				<path fill="#565656" d="M768.055,266.141h-6.596c-0.912,0-1.649-0.539-1.649-1.206c0-0.667,0.737-1.206,1.649-1.206h6.596
					c0.912,0,1.649,0.539,1.649,1.206C769.704,265.602,768.967,266.141,768.055,266.141z"/>
				<path fill="#565656" d="M773.322,266.141h-1.206c-0.667,0-1.206-0.539-1.206-1.206c0-0.667,0.539-1.206,1.206-1.206h1.206
					c0.667,0,1.206,0.539,1.206,1.206C774.528,265.602,773.989,266.141,773.322,266.141z"/>
				<g>
					<path fill="#565656" d="M770.246,292.842h-10.489c-0.233,0-0.422,0.189-0.422,0.422v8.796c0,0.233,0.189,0.422,0.422,0.422
						h1.87v2.964c0,0.688,0.558,1.245,1.245,1.245l0,0c0.688,0,1.245-0.558,1.245-1.245v-2.964h1.742v2.964
						c0,0.688,0.557,1.245,1.245,1.245l0,0c0.688,0,1.245-0.558,1.245-1.245v-2.964h1.896c0.233,0,0.422-0.189,0.422-0.422v-8.796
						C770.668,293.032,770.479,292.842,770.246,292.842z"/>
					<path fill="#565656" d="M757.558,292.84L757.558,292.84c-0.688,0-1.245,0.558-1.245,1.245v5.058
						c0,0.688,0.558,1.245,1.245,1.245l0,0c0.688,0,1.245-0.558,1.245-1.245v-5.058C758.804,293.398,758.246,292.84,757.558,292.84z
						"/>
					<path fill="#565656" d="M772.444,292.84L772.444,292.84c-0.688,0-1.245,0.558-1.245,1.245v5.058
						c0,0.688,0.558,1.245,1.245,1.245l0,0c0.688,0,1.245-0.558,1.245-1.245v-5.058C773.689,293.398,773.132,292.84,772.444,292.84z
						"/>
					<path fill="#565656" d="M759.841,292.226h10.294c0.269,0,0.469-0.247,0.414-0.51c-0.341-1.623-1.374-2.991-2.776-3.781
						l0.88-1.588c0.06-0.108,0.021-0.243-0.087-0.303c-0.108-0.06-0.243-0.021-0.303,0.087l-0.887,1.6
						c-0.726-0.337-1.536-0.525-2.389-0.525s-1.663,0.188-2.389,0.525l-0.887-1.6c-0.06-0.108-0.195-0.146-0.302-0.087
						c-0.108,0.06-0.146,0.195-0.087,0.303l0.88,1.588c-1.402,0.79-2.435,2.158-2.776,3.781
						C759.372,291.978,759.573,292.226,759.841,292.226z M768.06,289.859c0,0.264-0.214,0.479-0.479,0.479
						c-0.264,0-0.479-0.214-0.479-0.479c0-0.264,0.214-0.479,0.479-0.479S768.06,289.595,768.06,289.859z M762.396,289.38
						c0.264,0,0.479,0.214,0.479,0.479c0,0.264-0.214,0.479-0.479,0.479c-0.264,0-0.479-0.214-0.479-0.479
						C761.917,289.595,762.131,289.38,762.396,289.38z"/>
				</g>
			</g>
			<text transform="matrix(1 0 0 1 730.6229 358.5444)" fill="#FFFFFF" font-family="'WorkSans-Medium'" font-size="17.9851">Android</text>
		</g>
		<g>
			<circle fill="#888888" stroke="#FFFFFF" stroke-width="4" stroke-miterlimit="10" cx="861.059" cy="215.913" r="74.938"/>
			<g>
				<rect x="849.875" y="223.622" fill="#CDCCCC" width="22.463" height="9.189"/>
				<path fill="#565656" d="M817.154,213.922v-45.344c0-1.277,0.87-1.624,2.09-1.624h83.726c1.221,0,1.994,0.347,1.994,1.624v45.344
					H817.154z"/>
				<path fill="#DEDEDD" d="M817.154,213.922v7.658c0,1.22,0.87,2.553,2.09,2.553h83.726c1.221,0,1.994-1.332,1.994-2.553v-7.658
					H817.154z"/>
				<rect x="821.307" y="171.548" fill="#73C6ED" width="79.642" height="37.779"/>
				<path fill="#DEDEDD" d="M879.486,234.853c0-1.123-0.918-2.042-2.042-2.042H844.77c-1.123,0-2.042,0.919-2.042,2.042l0,0
					c0,1.123,0.919,2.042,2.042,2.042h32.674C878.567,236.895,879.486,235.976,879.486,234.853L879.486,234.853z"/>
				<path fill="#FFFFFF" d="M873.385,194.708c0.467-1.338,0.722-2.775,0.722-4.27c0-1.495-0.255-2.932-0.722-4.27
					c-0.011-0.04-0.025-0.079-0.041-0.117c-1.803-5.004-6.598-8.592-12.216-8.592s-10.413,3.588-12.216,8.592
					c-0.016,0.038-0.03,0.077-0.041,0.117c-0.467,1.338-0.722,2.775-0.722,4.27c0,1.495,0.255,2.932,0.722,4.27
					c0.011,0.04,0.025,0.079,0.041,0.117c1.803,5.005,6.598,8.592,12.216,8.592s10.413-3.588,12.216-8.592
					C873.36,194.787,873.374,194.748,873.385,194.708z M861.128,201.557c-0.494,0-1.291-0.895-1.957-2.893
					c-0.322-0.964-0.579-2.073-0.766-3.279h5.448c-0.188,1.206-0.445,2.315-0.766,3.279
					C862.419,200.662,861.622,201.557,861.128,201.557z M858.179,193.524c-0.089-0.992-0.137-2.027-0.137-3.086
					s0.047-2.094,0.137-3.086h5.899c0.089,0.992,0.137,2.027,0.137,3.086s-0.047,2.094-0.137,3.086H858.179z M850.009,190.438
					c0-1.07,0.152-2.106,0.436-3.086h5.867c-0.087,1.013-0.131,2.05-0.131,3.086s0.044,2.074,0.131,3.086h-5.867
					C850.162,192.543,850.009,191.508,850.009,190.438z M861.128,179.318c0.494,0,1.291,0.895,1.958,2.893
					c0.321,0.964,0.579,2.073,0.766,3.279h-5.448c0.188-1.206,0.445-2.315,0.766-3.279
					C859.837,180.213,860.634,179.318,861.128,179.318z M865.944,187.351h5.867c0.284,0.98,0.436,2.016,0.436,3.086
					s-0.152,2.106-0.436,3.086h-5.867c0.087-1.013,0.131-2.05,0.131-3.086S866.031,188.364,865.944,187.351z M871.084,185.491
					h-5.354c-0.331-2.282-0.899-4.329-1.695-5.786C867.123,180.542,869.682,182.679,871.084,185.491z M858.221,179.705
					c-0.796,1.456-1.364,3.504-1.695,5.786h-5.354C852.575,182.679,855.133,180.542,858.221,179.705z M851.172,195.384h5.354
					c0.331,2.282,0.899,4.329,1.695,5.786C855.133,200.333,852.575,198.196,851.172,195.384z M864.035,201.17
					c0.797-1.456,1.364-3.504,1.695-5.786h5.354C869.682,198.196,867.123,200.333,864.035,201.17z"/>
			</g>
			<text transform="matrix(1 0 0 1 841.7966 264.9693)" fill="#FFFFFF" font-family="'WorkSans-Medium'" font-size="17.9851">Web</text>
		</g>
		<g>
			<circle fill="#565656" cx="834.943" cy="282.662" r="9.992"/>
			<g>
				<path fill="#FFFFFF" d="M839.917,288.777c-0.54,0-1.014-0.088-1.422-0.262c-0.407-0.174-0.893-0.518-1.457-1.034
					c-0.443,0.408-0.962,0.726-1.555,0.953c-0.593,0.228-1.244,0.342-1.951,0.342c-0.755,0-1.43-0.133-2.023-0.396
					c-0.594-0.263-1.056-0.632-1.386-1.107c-0.33-0.473-0.495-1.016-0.495-1.628c0-0.706,0.213-1.351,0.639-1.933
					c0.425-0.582,1.124-1.107,2.095-1.574c-0.503-0.635-0.852-1.157-1.043-1.564c-0.192-0.408-0.288-0.833-0.288-1.277
					c0-0.467,0.117-0.914,0.351-1.34c0.233-0.425,0.578-0.768,1.033-1.026s1.008-0.386,1.655-0.386c0.887,0,1.607,0.219,2.158,0.657
					c0.551,0.437,0.827,1.069,0.827,1.897c0,0.696-0.174,1.302-0.522,1.817c-0.347,0.515-0.977,1.013-1.888,1.493
					c0.492,0.611,0.857,1.055,1.097,1.331c0.66,0.791,1.121,1.337,1.386,1.636c0.431-0.78,0.647-1.667,0.647-2.662l-0.018-0.414
					l1.421,0.108c0.023,0.731-0.06,1.438-0.252,2.122c-0.192,0.683-0.492,1.295-0.9,1.834c0.432,0.42,0.803,0.699,1.115,0.836
					c0.311,0.138,0.683,0.195,1.115,0.171L839.917,288.777z M832.002,286.834c0.432,0.347,0.959,0.521,1.584,0.521
					c0.958,0,1.804-0.275,2.535-0.826c-0.551-0.587-1.055-1.157-1.51-1.709l-0.269-0.306l-1.134-1.348
					c-0.731,0.444-1.223,0.839-1.474,1.187c-0.252,0.348-0.378,0.738-0.378,1.169C831.355,286.049,831.571,286.487,832.002,286.834z
					 M833.1,278.372c-0.228,0.246-0.341,0.56-0.341,0.944c0,0.301,0.068,0.588,0.207,0.864c0.138,0.276,0.434,0.702,0.89,1.277
					c0.648-0.383,1.073-0.749,1.277-1.098c0.203-0.347,0.305-0.743,0.305-1.187c0-0.383-0.117-0.674-0.35-0.872
					c-0.234-0.198-0.573-0.297-1.017-0.297C833.651,278.004,833.327,278.127,833.1,278.372z"/>
			</g>
		</g>
		<g>
			<circle fill="#565656" cx="834.943" cy="334.164" r="9.992"/>
			<g>
				<path fill="#FFFFFF" d="M839.917,340.279c-0.54,0-1.014-0.088-1.422-0.262c-0.407-0.174-0.893-0.518-1.457-1.034
					c-0.443,0.408-0.962,0.726-1.555,0.953c-0.593,0.228-1.244,0.342-1.951,0.342c-0.755,0-1.43-0.133-2.023-0.396
					c-0.594-0.263-1.056-0.632-1.386-1.107c-0.33-0.473-0.495-1.016-0.495-1.628c0-0.706,0.213-1.351,0.639-1.933
					c0.425-0.582,1.124-1.107,2.095-1.574c-0.504-0.635-0.852-1.157-1.043-1.564c-0.192-0.408-0.288-0.833-0.288-1.277
					c0-0.467,0.117-0.914,0.351-1.34c0.233-0.425,0.578-0.768,1.033-1.026s1.008-0.386,1.655-0.386c0.887,0,1.607,0.219,2.158,0.657
					c0.551,0.437,0.827,1.069,0.827,1.897c0,0.696-0.174,1.302-0.522,1.817c-0.347,0.515-0.977,1.013-1.888,1.493
					c0.492,0.611,0.857,1.055,1.097,1.331c0.66,0.791,1.121,1.337,1.386,1.636c0.431-0.78,0.647-1.667,0.647-2.662l-0.018-0.414
					l1.421,0.108c0.023,0.731-0.06,1.438-0.252,2.122c-0.192,0.683-0.492,1.295-0.9,1.834c0.432,0.42,0.803,0.699,1.115,0.836
					c0.311,0.138,0.683,0.195,1.115,0.171L839.917,340.279z M832.002,338.336c0.432,0.347,0.959,0.521,1.584,0.521
					c0.958,0,1.804-0.275,2.535-0.826c-0.551-0.587-1.055-1.157-1.51-1.709l-0.269-0.306l-1.134-1.349
					c-0.731,0.444-1.223,0.839-1.474,1.187c-0.252,0.348-0.378,0.738-0.378,1.169C831.355,337.55,831.571,337.989,832.002,338.336z
					 M833.1,329.874c-0.228,0.246-0.342,0.56-0.342,0.944c0,0.301,0.068,0.588,0.207,0.864c0.138,0.276,0.434,0.702,0.89,1.277
					c0.648-0.383,1.073-0.749,1.277-1.098c0.203-0.347,0.305-0.743,0.305-1.187c0-0.383-0.117-0.674-0.35-0.872
					c-0.234-0.198-0.573-0.297-1.017-0.297C833.651,329.505,833.327,329.628,833.1,329.874z"/>
			</g>
		</g>
	</g>
	<text transform="matrix(1 0 0 1 39.5989 52.398)" fill="#989898" font-family="'WorkSans-Medium'" font-size="35.9702">Multi-tier</text>
	<text transform="matrix(1 0 0 1 686.0565 52.398)" fill="#989898" font-family="'WorkSans-Medium'" font-size="35.9702">Multi platform</text>
	<g>
		<g>
			<path fill="#565656" d="M373.379,96.05v91.046h-14.486v-67.319c0-3.127,0.047-5.565,0.138-7.312
				c-3.127,3.035-6.691,5.656-10.691,7.864c-4,2.206-8.07,3.772-12.209,4.689l-2.758-12.828c2.389-0.277,5.493-1.287,9.31-3.035
				c3.815-1.746,7.426-3.815,10.83-6.208c3.402-2.391,5.885-4.691,7.449-6.897H373.379z"/>
		</g>
		<g>
			<path fill="#989898" d="M434.889,144.248c-3.687,2.441-8.021,3.661-13.002,3.661c-4.831,0-9.025-1.042-12.583-3.127
				c-3.559-2.083-6.306-5.083-8.237-8.998c-1.932-3.915-2.898-8.516-2.898-13.804s0.966-9.889,2.898-13.804
				c1.931-3.914,4.678-6.914,8.237-8.999c3.558-2.084,7.727-3.127,12.507-3.127c5.033,0,9.266,1.043,12.698,3.127
				c3.432,2.085,5.911,5.161,7.435,9.228l-7.702,3.432c-1.018-3-2.492-5.198-4.423-6.597c-1.933-1.397-4.45-2.097-7.551-2.097
				c-4.728,0-8.503,1.665-11.325,4.995c-2.822,3.331-4.233,7.945-4.233,13.842c0,5.949,1.347,10.576,4.042,13.88
				c2.694,3.306,6.431,4.958,11.211,4.958c3.253,0,5.986-0.813,8.198-2.441c2.212-1.626,3.8-4.016,4.766-7.168l7.78,2.593
				C441.181,138.326,438.576,141.808,434.889,144.248z"/>
			<path fill="#989898" d="M486.672,99.177c3.584,2.085,6.342,5.085,8.274,8.999c1.932,3.915,2.898,8.516,2.898,13.804
				s-0.966,9.889-2.898,13.804s-4.69,6.915-8.274,8.998c-3.584,2.085-7.792,3.127-12.622,3.127c-4.831,0-9.025-1.042-12.583-3.127
				c-3.559-2.083-6.306-5.083-8.237-8.998c-1.932-3.915-2.898-8.516-2.898-13.804s0.966-9.889,2.898-13.804
				c1.931-3.914,4.678-6.914,8.237-8.999c3.558-2.084,7.753-3.127,12.583-3.127C478.88,96.05,483.088,97.092,486.672,99.177z
				 M462.916,108.099c-2.696,3.306-4.042,7.932-4.042,13.881s1.347,10.576,4.042,13.88c2.694,3.306,6.406,4.958,11.134,4.958
				c4.778,0,8.515-1.652,11.211-4.958c2.695-3.304,4.041-7.931,4.041-13.88s-1.347-10.575-4.041-13.881
				c-2.696-3.304-6.433-4.957-11.211-4.957C469.322,103.143,465.61,104.796,462.916,108.099z"/>
			<path fill="#989898" d="M546.195,103.371c4.372,4.373,6.559,10.576,6.559,18.609c0,8.034-2.187,14.236-6.559,18.608
				c-4.373,4.373-10.524,6.559-18.456,6.559h-17.77V96.813h17.77C535.671,96.813,541.822,98.999,546.195,103.371z M539.941,135.441
				c2.848-3.177,4.271-7.665,4.271-13.461c0-5.797-1.423-10.283-4.271-13.461c-2.848-3.177-6.915-4.766-12.202-4.766h-9.61v36.454
				h9.61C533.026,140.207,537.094,138.618,539.941,135.441z"/>
			<path fill="#989898" d="M602.401,140.13v7.016H564.88V96.813h36.454v7.015h-28.295v14.491h22.117v6.863h-22.117v14.948H602.401z"
				/>
		</g>
		<g>
			<path fill="#989898" d="M419.098,182.564v4.088h-20.93v-29.328h4.755v25.24H419.098z"/>
			<path fill="#989898" d="M441.361,178.964h-12.353l-2.8,7.688h-4.888l11.065-29.328h5.688l11.065,29.328h-5.021L441.361,178.964z
				 M439.939,175.098l-3.378-9.421l-1.333-4.221h-0.133l-1.244,4.133l-3.466,9.51H439.939z"/>
			<path fill="#989898" d="M478.377,186.652h-5.643l-11.332-18.486l-2.844-5.421h-0.045l0.178,4.977v18.93h-4.355v-29.328h5.599
				l11.287,18.441l2.888,5.465h0.045l-0.178-4.977v-18.93h4.399V186.652z"/>
			<path fill="#989898" d="M511.615,171.499v15.153h-3.51l-0.133-3.733c-0.859,1.333-2.044,2.363-3.556,3.088
				c-1.51,0.726-3.318,1.089-5.421,1.089c-2.725,0-5.11-0.607-7.154-1.822c-2.044-1.214-3.63-2.955-4.754-5.221
				c-1.126-2.266-1.689-4.954-1.689-8.065c0-3.081,0.578-5.755,1.733-8.021c1.156-2.266,2.785-4.014,4.888-5.244
				c2.103-1.229,4.548-1.844,7.333-1.844c3.023,0,5.511,0.564,7.466,1.689c1.955,1.126,3.496,2.874,4.622,5.244l-4.355,2.088
				c-0.563-1.6-1.51-2.814-2.844-3.644c-1.333-0.829-2.933-1.244-4.799-1.244c-2.786,0-4.993,0.963-6.621,2.888
				c-1.63,1.926-2.445,4.622-2.445,8.088c0,3.526,0.779,6.244,2.334,8.154c1.555,1.911,3.828,2.866,6.82,2.866
				c2.341,0,4.238-0.577,5.689-1.733c1.451-1.155,2.177-2.829,2.177-5.021v-0.844h-8.976v-3.91H511.615z"/>
			<path fill="#989898" d="M535.789,178.964h-12.353l-2.8,7.688h-4.888l11.065-29.328h5.688l11.065,29.328h-5.021L535.789,178.964z
				 M534.367,175.098l-3.376-9.421l-1.333-4.221h-0.134l-1.244,4.133l-3.466,9.51H534.367z"/>
			<path fill="#989898" d="M572.316,171.499v15.153h-3.51l-0.133-3.733c-0.859,1.333-2.044,2.363-3.556,3.088
				c-1.51,0.726-3.317,1.089-5.421,1.089c-2.725,0-5.11-0.607-7.154-1.822c-2.044-1.214-3.63-2.955-4.754-5.221
				c-1.127-2.266-1.689-4.954-1.689-8.065c0-3.081,0.577-5.755,1.732-8.021c1.156-2.266,2.785-4.014,4.888-5.244
				c2.104-1.229,4.548-1.844,7.333-1.844c3.022,0,5.51,0.564,7.465,1.689c1.955,1.126,3.496,2.874,4.622,5.244l-4.355,2.088
				c-0.563-1.6-1.51-2.814-2.844-3.644c-1.333-0.829-2.933-1.244-4.799-1.244c-2.786,0-4.993,0.963-6.621,2.888
				c-1.63,1.926-2.445,4.622-2.445,8.088c0,3.526,0.779,6.244,2.334,8.154s3.828,2.866,6.82,2.866c2.341,0,4.237-0.577,5.688-1.733
				s2.177-2.829,2.177-5.021v-0.844h-8.976v-3.91H572.316z"/>
			<path fill="#989898" d="M601.779,182.564v4.088h-21.863v-29.328h21.241v4.088h-16.487v8.443h12.887v3.999h-12.887v8.71H601.779z"
				/>
		</g>
	</g>
	<g>
		<rect x="332.42" y="420.696" fill="#565656" width="289.548" height="59.849"/>
		<rect x="332.42" y="352.916" fill="#1E4886" width="289.548" height="68.792"/>
		<rect x="332.42" y="295.061" fill="#565656" width="289.548" height="63.173"/>
		<rect x="332.42" y="235.924" fill="#1E4886" width="289.548" height="59.831"/>
		<rect x="313.808" y="235.924" fill="#888888" width="37.225" height="244.621"/>
		<g>
			<path fill="#989898" d="M329.761,267.831h5.318c2.941,0,5.318-2.377,5.318-5.318s-2.377-5.318-5.318-5.318h-5.318
				c-2.941,0-5.318,2.377-5.318,5.318S326.82,267.831,329.761,267.831z"/>
			<path fill="#989898" d="M335.079,278.466h-5.318c-2.941,0-5.318,2.377-5.318,5.318s2.377,5.318,5.318,5.318h5.318
				c2.941,0,5.318-2.377,5.318-5.318S338.02,278.466,335.079,278.466z"/>
			<path fill="#989898" d="M335.079,299.738h-5.318c-2.941,0-5.318,2.377-5.318,5.318s2.377,5.318,5.318,5.318h5.318
				c2.941,0,5.318-2.377,5.318-5.318S338.02,299.738,335.079,299.738z"/>
			<path fill="#989898" d="M335.079,321.009h-5.318c-2.941,0-5.318,2.377-5.318,5.318s2.377,5.318,5.318,5.318h5.318
				c2.941,0,5.318-2.377,5.318-5.318S338.02,321.009,335.079,321.009z"/>
			<path fill="#989898" d="M335.079,342.28h-5.318c-2.941,0-5.318,2.377-5.318,5.318c0,2.941,2.377,5.318,5.318,5.318h5.318
				c2.941,0,5.318-2.377,5.318-5.318C340.397,344.658,338.02,342.28,335.079,342.28z"/>
			<path fill="#989898" d="M335.079,363.552h-5.318c-2.941,0-5.318,2.377-5.318,5.318s2.377,5.318,5.318,5.318h5.318
				c2.941,0,5.318-2.377,5.318-5.318S338.02,363.552,335.079,363.552z"/>
			<path fill="#989898" d="M335.079,384.823h-5.318c-2.941,0-5.318,2.377-5.318,5.318c0,2.941,2.377,5.318,5.318,5.318h5.318
				c2.941,0,5.318-2.377,5.318-5.318C340.397,387.2,338.02,384.823,335.079,384.823z"/>
			<path fill="#989898" d="M335.079,406.095h-5.318c-2.941,0-5.318,2.377-5.318,5.318c0,2.941,2.377,5.318,5.318,5.318h5.318
				c2.941,0,5.318-2.377,5.318-5.318C340.397,408.472,338.02,406.095,335.079,406.095z"/>
			<path fill="#989898" d="M335.079,427.366h-5.318c-2.941,0-5.318,2.377-5.318,5.318s2.377,5.318,5.318,5.318h5.318
				c2.941,0,5.318-2.377,5.318-5.318S338.02,427.366,335.079,427.366z"/>
			<path fill="#989898" d="M335.079,448.637h-5.318c-2.941,0-5.318,2.377-5.318,5.318c0,2.941,2.377,5.318,5.318,5.318h5.318
				c2.941,0,5.318-2.377,5.318-5.318C340.397,451.014,338.02,448.637,335.079,448.637z"/>
		</g>
		<path fill="#73C6ED" d="M446.754,267.831h-69.132c-2.941,0-5.318-2.377-5.318-5.318s2.377-5.318,5.318-5.318h69.132
			c2.941,0,5.318,2.377,5.318,5.318S449.694,267.831,446.754,267.831z"/>
		<path fill="#FFFFFF" d="M521.204,267.831h-53.178c-2.941,0-5.318-2.377-5.318-5.318s2.377-5.318,5.318-5.318h53.178
			c2.941,0,5.318,2.377,5.318,5.318S524.144,267.831,521.204,267.831z"/>
		<path fill="#989898" d="M553.111,267.831h-10.636c-2.941,0-5.318-2.377-5.318-5.318s2.377-5.318,5.318-5.318h10.636
			c2.941,0,5.318,2.377,5.318,5.318S556.051,267.831,553.111,267.831z"/>
		<path fill="#FFFFFF" d="M579.7,286.884h-79.768c-2.941,0-5.318-2.377-5.318-5.318s2.377-5.318,5.318-5.318H579.7
			c2.941,0,5.318,2.377,5.318,5.318S582.641,286.884,579.7,286.884z"/>
		<path fill="#FFFFFF" d="M478.661,286.884h-74.45c-2.941,0-5.318-2.377-5.318-5.318s2.377-5.318,5.318-5.318h74.45
			c2.941,0,5.318,2.377,5.318,5.318S481.602,286.884,478.661,286.884z"/>
		<path fill="#989898" d="M382.94,286.884h-5.318c-2.941,0-5.318-2.377-5.318-5.318s2.377-5.318,5.318-5.318h5.318
			c2.941,0,5.318,2.377,5.318,5.318S385.88,286.884,382.94,286.884z"/>
		<path fill="#D4DF67" d="M425.482,312.591h-47.861c-2.941,0-5.318-2.377-5.318-5.318s2.377-5.318,5.318-5.318h47.861
			c2.941,0,5.318,2.377,5.318,5.318S428.423,312.591,425.482,312.591z"/>
		<path fill="#989898" d="M457.389,312.591h-10.636c-2.941,0-5.318-2.377-5.318-5.318s2.377-5.318,5.318-5.318h10.636
			c2.941,0,5.318,2.377,5.318,5.318S460.33,312.591,457.389,312.591z"/>
		<path fill="#FFFFFF" d="M553.111,312.591h-74.45c-2.941,0-5.318-2.377-5.318-5.318s2.377-5.318,5.318-5.318h74.45
			c2.941,0,5.318,2.377,5.318,5.318S556.051,312.591,553.111,312.591z"/>
		<path fill="#FFFFFF" d="M446.754,331.645h-69.132c-2.941,0-5.318-2.377-5.318-5.318s2.377-5.318,5.318-5.318h69.132
			c2.941,0,5.318,2.377,5.318,5.318S449.694,331.645,446.754,331.645z"/>
		<path fill="#FFFFFF" d="M521.204,331.645h-53.178c-2.941,0-5.318-2.377-5.318-5.318s2.377-5.318,5.318-5.318h53.178
			c2.941,0,5.318,2.377,5.318,5.318S524.144,331.645,521.204,331.645z"/>
		<path fill="#989898" d="M542.475,350.698h-42.543c-2.941,0-5.318-2.377-5.318-5.318s2.377-5.318,5.318-5.318h42.543
			c2.941,0,5.318,2.377,5.318,5.318S545.416,350.698,542.475,350.698z"/>
		<path fill="#FFFFFF" d="M478.661,350.698h-74.45c-2.941,0-5.318-2.377-5.318-5.318s2.377-5.318,5.318-5.318h74.45
			c2.941,0,5.318,2.377,5.318,5.318S481.602,350.698,478.661,350.698z"/>
		<path fill="#989898" d="M382.94,350.698h-5.318c-2.941,0-5.318-2.377-5.318-5.318s2.377-5.318,5.318-5.318h5.318
			c2.941,0,5.318,2.377,5.318,5.318S385.88,350.698,382.94,350.698z"/>
		<path fill="#73C6ED" d="M425.482,376.405h-47.861c-2.941,0-5.318-2.377-5.318-5.318c0-2.941,2.377-5.318,5.318-5.318h47.861
			c2.941,0,5.318,2.377,5.318,5.318C430.8,374.028,428.423,376.405,425.482,376.405z"/>
		<path fill="#989898" d="M457.389,376.405h-10.636c-2.941,0-5.318-2.377-5.318-5.318c0-2.941,2.377-5.318,5.318-5.318h10.636
			c2.941,0,5.318,2.377,5.318,5.318C462.707,374.028,460.33,376.405,457.389,376.405z"/>
		<path fill="#FFFFFF" d="M558.428,376.405h-79.768c-2.941,0-5.318-2.377-5.318-5.318c0-2.941,2.377-5.318,5.318-5.318h79.768
			c2.941,0,5.318,2.377,5.318,5.318C563.746,374.028,561.369,376.405,558.428,376.405z"/>
		<path fill="#FFFFFF" d="M446.754,395.459h-69.132c-2.941,0-5.318-2.377-5.318-5.318c0-2.941,2.377-5.318,5.318-5.318h69.132
			c2.941,0,5.318,2.377,5.318,5.318C452.072,393.082,449.694,395.459,446.754,395.459z"/>
		<path fill="#FFFFFF" d="M521.204,395.459h-53.178c-2.941,0-5.318-2.377-5.318-5.318c0-2.941,2.377-5.318,5.318-5.318h53.178
			c2.941,0,5.318,2.377,5.318,5.318C526.521,393.082,524.144,395.459,521.204,395.459z"/>
		<path fill="#FFFFFF" d="M579.7,395.459h-37.225c-2.941,0-5.318-2.377-5.318-5.318c0-2.941,2.377-5.318,5.318-5.318H579.7
			c2.941,0,5.318,2.377,5.318,5.318C585.018,393.082,582.641,395.459,579.7,395.459z"/>
		<path fill="#FFFFFF" d="M521.204,414.512h-21.271c-2.941,0-5.318-2.377-5.318-5.318s2.377-5.318,5.318-5.318h21.271
			c2.941,0,5.318,2.377,5.318,5.318S524.144,414.512,521.204,414.512z"/>
		<path fill="#FFFFFF" d="M478.661,414.512h-74.45c-2.941,0-5.318-2.377-5.318-5.318s2.377-5.318,5.318-5.318h74.45
			c2.941,0,5.318,2.377,5.318,5.318S481.602,414.512,478.661,414.512z"/>
		<path fill="#989898" d="M382.94,414.512h-5.318c-2.941,0-5.318-2.377-5.318-5.318s2.377-5.318,5.318-5.318h5.318
			c2.941,0,5.318,2.377,5.318,5.318S385.88,414.512,382.94,414.512z"/>
		<path fill="#D4DF67" d="M425.482,438.002h-47.861c-2.941,0-5.318-2.377-5.318-5.318s2.377-5.318,5.318-5.318h47.861
			c2.941,0,5.318,2.377,5.318,5.318S428.423,438.002,425.482,438.002z"/>
		<path fill="#989898" d="M457.389,438.002h-10.636c-2.941,0-5.318-2.377-5.318-5.318s2.377-5.318,5.318-5.318h10.636
			c2.941,0,5.318,2.377,5.318,5.318S460.33,438.002,457.389,438.002z"/>
		<path fill="#FFFFFF" d="M515.886,438.002h-37.225c-2.941,0-5.318-2.377-5.318-5.318s2.377-5.318,5.318-5.318h37.225
			c2.941,0,5.318,2.377,5.318,5.318S518.826,438.002,515.886,438.002z"/>
		<path fill="#989898" d="M542.475,438.002h-5.318c-2.941,0-5.318-2.377-5.318-5.318s2.377-5.318,5.318-5.318h5.318
			c2.941,0,5.318,2.377,5.318,5.318S545.416,438.002,542.475,438.002z"/>
	</g>
	<g>
		<g>
			<g>
				
					<circle id="SVGID_4_" fill="#73C6ED" stroke="#FFFFFF" stroke-width="4" stroke-miterlimit="10" cx="76.941" cy="207.75" r="74.938"/>
				<g>
					<g>
						<path fill="#989898" d="M108.098,176.334H45.783c-2.444,0-4.427-1.983-4.427-4.427v-14.46c0-2.444,1.983-4.427,4.427-4.427
							h62.314c2.446,0,4.428,1.983,4.428,4.427v14.458C112.525,174.351,110.542,176.334,108.098,176.334z"/>
						<path fill="#888888" d="M108.098,199.648H45.783c-2.444,0-4.427-1.983-4.427-4.427v-14.46c0-2.444,1.983-4.427,4.427-4.427
							h62.314c2.446,0,4.427,1.983,4.427,4.427v14.458C112.525,197.665,110.542,199.648,108.098,199.648z"/>
						<path fill="#989898" d="M108.098,222.962H45.783c-2.444,0-4.427-1.983-4.427-4.427v-14.46c0-2.444,1.983-4.427,4.427-4.427
							h62.314c2.446,0,4.427,1.983,4.427,4.427v14.458C112.525,220.979,110.542,222.962,108.098,222.962z"/>
						<circle fill="#565656" cx="53.013" cy="164.677" r="4.295"/>
						<circle fill="#565656" cx="101.482" cy="162.836" r="1.227"/>
						<circle fill="#565656" cx="96.574" cy="162.836" r="1.227"/>
						<circle fill="#565656" cx="103.936" cy="166.518" r="1.227"/>
						<circle fill="#565656" cx="99.028" cy="166.518" r="1.227"/>
						<circle fill="#565656" cx="91.665" cy="162.836" r="1.227"/>
						<circle fill="#565656" cx="94.119" cy="166.518" r="1.227"/>
						<circle fill="#565656" cx="86.757" cy="162.836" r="1.227"/>
						<circle fill="#565656" cx="89.211" cy="166.518" r="1.227"/>
						<circle fill="#659846" cx="81.849" cy="162.836" r="1.227"/>
						<circle fill="#565656" cx="84.303" cy="166.518" r="1.227"/>
						<circle fill="#565656" cx="53.013" cy="187.991" r="4.295"/>
						<circle fill="#565656" cx="101.482" cy="186.15" r="1.227"/>
						<circle fill="#565656" cx="96.574" cy="186.15" r="1.227"/>
						<circle fill="#565656" cx="103.936" cy="189.832" r="1.227"/>
						<circle fill="#565656" cx="99.028" cy="189.832" r="1.227"/>
						<circle fill="#565656" cx="91.665" cy="186.15" r="1.227"/>
						<circle fill="#565656" cx="94.119" cy="189.832" r="1.227"/>
						<circle fill="#565656" cx="86.757" cy="186.15" r="1.227"/>
						<circle fill="#565656" cx="89.211" cy="189.832" r="1.227"/>
						<circle fill="#659846" cx="81.849" cy="186.15" r="1.227"/>
						<circle fill="#565656" cx="84.303" cy="189.832" r="1.227"/>
						<circle fill="#565656" cx="53.013" cy="211.305" r="4.295"/>
						<circle fill="#565656" cx="101.482" cy="209.464" r="1.227"/>
						<circle fill="#565656" cx="96.574" cy="209.464" r="1.227"/>
						<circle fill="#565656" cx="103.936" cy="213.146" r="1.227"/>
						<circle fill="#565656" cx="99.028" cy="213.146" r="1.227"/>
						<circle fill="#565656" cx="91.665" cy="209.464" r="1.227"/>
						<circle fill="#565656" cx="94.119" cy="213.146" r="1.227"/>
						<circle fill="#565656" cx="86.757" cy="209.464" r="1.227"/>
						<circle fill="#565656" cx="89.211" cy="213.146" r="1.227"/>
						<circle fill="#DE4B69" cx="81.849" cy="209.464" r="1.227"/>
						<circle fill="#565656" cx="84.303" cy="213.146" r="1.227"/>
					</g>
				</g>
				<text transform="matrix(1 0 0 1 48.7181 244.104)" fill="#FFFFFF" font-family="'WorkSans-Medium'" font-size="17.9851">Server</text>
			</g>
		</g>
		<g>
			<g>
				
					<circle id="SVGID_1_" fill="#D4DF67" stroke="#FFFFFF" stroke-width="4" stroke-miterlimit="10" cx="169.336" cy="309.955" r="74.938"/>
				<text transform="matrix(1 0 0 1 143.366 268.9868)" fill="#FFFFFF" font-family="'WorkSans-Medium'" font-size="17.9851">Client</text>
				<g>
					<path fill="#E1B99A" d="M166.259,307.89h1.453h4.409h1.453l0.593,6.166l1.052,0.845l2.22,1.413l-7.523,17.77l-7.523-17.77
						l2.22-1.413l1.053-0.844L166.259,307.89L166.259,307.89z"/>
					<path fill="#565656" d="M163.949,315.323l-10.725,3.423c0,0-1.043,0.543-1.594,2.12c-3.195,3.423-13.428,14.609-13.428,17.449
						c0,3.365,8.734,11.471,8.734,11.471h4.146v2.905h18.834h18.834v-2.905h4.146c0,0,8.734-8.106,8.734-11.471
						c0-2.841-10.234-14.028-13.428-17.45c-0.551-1.575-1.594-2.118-1.594-2.118l-10.652-3.376l-0.904,2.651l-5.137-0.249
						l-5.062,0.246L163.949,315.323L163.949,315.323z M151.083,334.934L151.083,334.934l1.329,5.302l-0.235,5.602l-1.094-1.252
						l-3.817-5.453L151.083,334.934L151.083,334.934z M188.751,344.586L188.751,344.586l-1.094,1.185l-0.236-6.507l1.329-4.33
						l3.818,4.2L188.751,344.586z"/>
					<path fill="#DEDEDD" d="M163.845,315.357l-1.443,0.46l7.514,18.266l7.581-18.225l-1.54-0.488l-3.772,2.331h-4.523
						L163.845,315.357L163.845,315.357z"/>
					<path fill="#888888" d="M163.949,315.323l-2.314,0.738l-0.444,5.87c0,0,0.122,0.482,0.49,0.439l2.088,0.785
						c0,0,0.137,0.137,0.014,0.31l-1.787,1.224l6.173,11.635c0.578,0.033,1.16,0.05,1.746,0.05c0.587,0,1.169-0.017,1.747-0.05
						l6.173-11.635l-1.787-1.224c-0.122-0.173,0.014-0.31,0.014-0.31l2.088-0.785c0.368,0.043,0.49-0.439,0.49-0.439l-0.443-5.851
						l-2.242-0.711l-6.04,17.715L163.949,315.323L163.949,315.323z"/>
					<path fill="#EBC19C" d="M178.436,295.352c0,0.573,0.209,1.134,0.194,1.684c1.96-0.364,1.014,5.459-0.095,6.26
						c-0.088,0.064-0.305-0.078-0.488-0.195c-0.385,2.142-3.668,7.864-5.756,10.273c-0.58,0.669-4.125,0.658-4.699,0.026
						c-2.138-2.354-5.418-8.145-5.804-10.299c-0.183,0.117-0.4,0.259-0.488,0.195c-1.109-0.801-2.056-6.624-0.095-6.26
						c-0.015-0.55,0.193-1.111,0.193-1.684c0.109-4.521,4.205-6.779,8.52-6.798C174.231,288.573,178.328,290.831,178.436,295.352
						L178.436,295.352z"/>
					<path fill="#565656" d="M175.809,289.556c0.618-0.072,2.851,0.612,3.119,2.975c0.268,2.363,0.14,4.54,0.14,4.54
						s-1.308,0.331-1.473,1.671c-0.164,1.341-0.047,1.341-0.047,1.341l-0.474-0.106l-0.338-2.299
						c-1.957-1.226,0.015-3.043-1.943-3.469c-5.287,3.768-9.952,3.124-12.056,1.351c0,0,0.491,1.854,0.112,2.515
						c-0.379,0.661-0.153,1.703-0.153,1.703l-0.492-0.024c0,0,0.089-2.73-1.003-2.719
						C157.056,290.187,170.187,281.68,175.809,289.556L175.809,289.556z"/>
					<g>
						<path fill="#FFFFFF" d="M165.616,313.176c0.154,0.011-1.79,2.187-1.79,2.187l1.655,5.624l4.437-3.286
							C167.476,316.513,166.02,314.973,165.616,313.176L165.616,313.176z"/>
						<path fill="#FFFFFF" d="M174.218,313.176c-0.153,0.011,1.79,2.187,1.79,2.187l-1.655,5.624l-4.436-3.286
							C172.357,316.513,173.814,314.973,174.218,313.176L174.218,313.176z"/>
					</g>
					<path fill="#EDF0F1" d="M150.7,346.516c2.501,0,4.529,1.259,4.529,2.811c0,1.552-2.027,2.811-4.529,2.811
						c-2.501,0-4.529-1.259-4.529-2.811C146.171,347.774,148.199,346.516,150.7,346.516z M150.7,347.258L150.7,347.258
						c-1.947,0-3.524,0.927-3.524,2.069c0,1.142,1.578,2.069,3.524,2.069c1.947,0,3.524-0.927,3.524-2.069
						C154.224,348.185,152.647,347.258,150.7,347.258z"/>
					<path fill="#387CB9" d="M150.7,351.395c1.941,0,3.524-0.929,3.524-2.069c0-1.139-1.583-2.069-3.524-2.069
						s-3.524,0.929-3.524,2.069C147.176,350.466,148.759,351.395,150.7,351.395z"/>
					<path fill="#EBC19C" d="M149.266,350.508v2.265c0,0.281-0.229,0.511-0.511,0.511h-0.901c-0.281,0-0.511-0.23-0.511-0.511
						v-3.506c0-0.054,0.008-0.105,0.024-0.154v-0.772c0-0.656,0.537-1.192,1.193-1.192h7.374c0.656,0,1.192,0.536,1.192,1.192v0.771
						c0.016,0.049,0.024,0.101,0.024,0.155v3.506c0,0.281-0.23,0.511-0.511,0.511h-0.901c-0.281,0-0.511-0.23-0.511-0.511v-2.265
						h-0.706v2.265c0,0.281-0.229,0.511-0.511,0.511h-0.901c-0.281,0-0.511-0.23-0.511-0.511v-2.265h-0.706v2.265
						c0,0.281-0.23,0.511-0.511,0.511h-0.901c-0.281,0-0.511-0.23-0.511-0.511v-2.265L149.266,350.508L149.266,350.508z"/>
					<path fill="#EDF0F1" d="M189.134,346.516c-2.501,0-4.529,1.259-4.529,2.811c0,1.552,2.027,2.811,4.529,2.811
						c2.501,0,4.529-1.259,4.529-2.811C193.663,347.774,191.635,346.516,189.134,346.516z M189.134,347.258L189.134,347.258
						c1.947,0,3.524,0.927,3.524,2.069c0,1.142-1.578,2.069-3.524,2.069c-1.947,0-3.524-0.927-3.524-2.069
						C185.61,348.185,187.187,347.258,189.134,347.258z"/>
					<path fill="#333333" d="M189.135,351.395c1.941,0,3.524-0.929,3.524-2.069c0-1.139-1.583-2.069-3.524-2.069
						c-1.941,0-3.524,0.929-3.524,2.069C185.61,350.466,187.193,351.395,189.135,351.395z"/>
					<path fill="#EBC19C" d="M190.569,350.508v2.265c0,0.281,0.229,0.511,0.511,0.511h0.901c0.281,0,0.511-0.23,0.511-0.511v-3.506
						c0-0.054-0.008-0.105-0.024-0.154v-0.772c0-0.656-0.536-1.192-1.192-1.192H183.9c-0.656,0-1.192,0.536-1.192,1.192v0.771
						c-0.016,0.049-0.024,0.101-0.024,0.155v3.506c0,0.281,0.229,0.511,0.511,0.511h0.901c0.281,0,0.511-0.23,0.511-0.511v-2.265
						h0.706v2.265c0,0.281,0.23,0.511,0.511,0.511h0.901c0.281,0,0.511-0.23,0.511-0.511v-2.265h0.706v2.265
						c0,0.281,0.23,0.511,0.511,0.511h0.901c0.281,0,0.51-0.23,0.51-0.511v-2.265L190.569,350.508L190.569,350.508z"/>
					<path fill="#DEDEDD" d="M149.715,324.668h40.403c1.29,0,2.346,1.056,2.346,2.346v22.331c0,1.29-1.056,2.346-2.346,2.346
						h-40.403c-1.29,0-2.346-1.056-2.346-2.346v-22.331C147.369,325.723,148.425,324.668,149.715,324.668z"/>
					<path fill="#DEDEDD" d="M148.259,352.841h43.315c0.49,0,0.89,0.401,0.89,0.891v1.717c0,0.49-0.401,0.891-0.89,0.891h-43.315
						c-0.49,0-0.89-0.4-0.89-0.891v-1.717C147.369,353.241,147.77,352.841,148.259,352.841z"/>
					<g>
						<path fill="#C2C1C1" d="M153.993,351.153h3.829v2.61h-3.829V351.153z M182.013,351.153L182.013,351.153h3.829v2.61h-3.829
							V351.153z"/>
						<path fill="#565656" d="M165.669,334.798h8.495c0.114,0,0.207,0.093,0.207,0.207v1.923c0,0.114-0.093,0.207-0.207,0.207
							h-8.495c-0.114,0-0.207-0.093-0.207-0.207v-1.923C165.463,334.891,165.555,334.798,165.669,334.798z"/>
					</g>
				</g>
			</g>
		</g>
		<g>
			<circle fill="#565656" cx="119.851" cy="256.997" r="9.992"/>
			<g>
				<path fill="#FFFFFF" d="M124.825,263.112c-0.54,0-1.014-0.088-1.422-0.262c-0.407-0.174-0.893-0.518-1.457-1.034
					c-0.443,0.408-0.962,0.726-1.555,0.953c-0.593,0.228-1.244,0.342-1.952,0.342c-0.755,0-1.429-0.133-2.023-0.396
					c-0.594-0.263-1.056-0.632-1.386-1.107c-0.33-0.473-0.495-1.016-0.495-1.628c0-0.706,0.213-1.351,0.639-1.933
					c0.425-0.582,1.124-1.107,2.095-1.574c-0.503-0.635-0.852-1.157-1.043-1.564c-0.192-0.408-0.288-0.833-0.288-1.277
					c0-0.467,0.117-0.914,0.351-1.34c0.233-0.425,0.578-0.768,1.033-1.026c0.456-0.258,1.008-0.386,1.655-0.386
					c0.887,0,1.607,0.219,2.158,0.657c0.551,0.437,0.827,1.069,0.827,1.897c0,0.696-0.174,1.302-0.522,1.817
					c-0.347,0.515-0.977,1.013-1.888,1.493c0.492,0.611,0.857,1.055,1.097,1.331c0.66,0.791,1.121,1.337,1.386,1.636
					c0.431-0.78,0.647-1.667,0.647-2.662l-0.018-0.414l1.421,0.108c0.023,0.731-0.06,1.438-0.252,2.122
					c-0.192,0.683-0.492,1.295-0.9,1.834c0.432,0.42,0.803,0.699,1.115,0.836c0.311,0.138,0.683,0.195,1.115,0.171L124.825,263.112z
					 M116.91,261.169c0.432,0.347,0.959,0.521,1.584,0.521c0.958,0,1.804-0.275,2.535-0.826c-0.551-0.587-1.055-1.157-1.51-1.709
					l-0.269-0.306l-1.134-1.348c-0.731,0.444-1.223,0.839-1.474,1.187c-0.252,0.348-0.378,0.738-0.378,1.169
					C116.263,260.384,116.479,260.822,116.91,261.169z M118.008,252.707c-0.228,0.246-0.342,0.56-0.342,0.944
					c0,0.301,0.068,0.588,0.207,0.864c0.138,0.276,0.434,0.702,0.89,1.277c0.648-0.383,1.073-0.749,1.277-1.098
					c0.203-0.347,0.305-0.743,0.305-1.187c0-0.383-0.117-0.674-0.35-0.872c-0.234-0.198-0.573-0.297-1.017-0.297
					C118.559,252.339,118.235,252.462,118.008,252.707z"/>
			</g>
		</g>
	</g>
</g>
</svg>
